<svg xmlns="http://www.w3.org/2000/svg" width="42" height="42" viewBox="0 0 42 42">
  <g id="Baidu" transform="translate(-2444 -3023)">
    <circle id="Ellipse_36" data-name="Ellipse 36" cx="21" cy="21" r="21" transform="translate(2444 3023)" fill="#0062b2"/>
    <g id="iconfinder_baidu_294679" transform="translate(2265.856 2845.263)">
      <g id="形状_3_5_" transform="translate(184.716 182.565)">
        <g id="形状_3" transform="translate(0 0)">
          <g id="Group_168" data-name="Group 168">
            <path id="Path_619" data-name="Path 619" d="M203.241,192.428c2.481.325,4.072-2.322,4.39-4.328a4.516,4.516,0,0,0-3.031-4.734c-1.761-.4-3.958,2.414-4.157,4.253C200.2,189.867,200.762,192.11,203.241,192.428Zm-14.23,6.421c3.359-.721,2.9-4.74,2.8-5.618-.166-1.354-1.757-3.719-3.917-3.53-2.719.242-3.117,4.17-3.117,4.17C184.411,195.69,185.658,199.572,189.011,198.849Zm6.237-6.735c1.854,0,3.352-2.137,3.352-4.776s-1.5-4.773-3.352-4.773-3.357,2.133-3.357,4.773S193.393,192.113,195.248,192.113Zm-2.67,13.718a2.833,2.833,0,0,0-.126,1.631,1.855,1.855,0,0,0,1.6,1.475h1.758v-4.3h-1.882A2.054,2.054,0,0,0,192.578,205.832ZM213.069,195.8c0-.96-.794-3.852-3.753-3.852s-3.356,2.73-3.356,4.658c0,1.841.154,4.408,3.834,4.328S213.069,196.764,213.069,195.8Zm-3.753,8.422a34.13,34.13,0,0,1-6.075-6.176c-3.04-4.731-7.354-2.8-8.8-.4a19.961,19.961,0,0,1-3.993,4.333c-.323.4-4.634,2.725-3.677,6.977s4.32,4.17,4.32,4.17a18.913,18.913,0,0,0,5.35-.4,11.274,11.274,0,0,1,5.356.158s6.716,2.252,8.552-2.081S209.316,204.22,209.316,204.22Zm-11.5,6.449h-4.365a3.825,3.825,0,0,1-2.732-1.885,4.985,4.985,0,0,1-.344-3.017,3.836,3.836,0,0,1,3.139-2.828h2.326v-2.855l1.976.031v10.555Zm8.135-.03h-5.023c-1.95-.5-2.041-1.887-2.041-1.887v-5.557l2.041-.032v4.993c.124.532.785.628.785.628h2.07v-5.589h2.168Z" transform="translate(-184.716 -182.565)" fill="#fff" fill-rule="evenodd"/>
          </g>
        </g>
      </g>
    </g>
  </g>
</svg>
