<svg xmlns="http://www.w3.org/2000/svg" width="70" height="55.998" viewBox="0 0 70 55.998">
  <g id="Group_4" data-name="Group 4" transform="translate(0 -53.873)">
    <path id="Path_1" data-name="Path 1" d="M58,111.144h6.682A13.395,13.395,0,1,0,63.34,84.424c.03-.432.065-.864.065-1.3a18.055,18.055,0,0,0-35.97-2.493c-.471-.045-.948-.073-1.431-.073a15.3,15.3,0,0,0,0,30.591h6.085" transform="translate(-9.404 -9.406)" fill="#e6f2fc"/>
    <g id="Group_3" data-name="Group 3" transform="translate(0 53.873)">
      <path id="Path_2" data-name="Path 2" d="M55.5,73.438a19.731,19.731,0,0,0-19.58-19.565A19.377,19.377,0,0,0,23,58.816a19.916,19.916,0,0,0-6.227,10.819h-.188a16.81,16.81,0,0,0,0,33.616H28.175a1.513,1.513,0,0,0,0-3.025H16.589a13.784,13.784,0,0,1,0-27.566c.4,0,.822.022,1.292.067a1.5,1.5,0,0,0,1.619-1.3,16.889,16.889,0,0,1,5.478-10.339A16.416,16.416,0,0,1,35.923,56.9a16.726,16.726,0,0,1,16.6,16.815c0,.334-.024.678-.05,1.042l-.011.155a1.523,1.523,0,0,0,.449,1.192,1.481,1.481,0,0,0,1.189.42,11.875,11.875,0,1,1,1.191,23.7H43.1a1.513,1.513,0,0,0,0,3.025H55.287A14.91,14.91,0,0,0,55.5,73.438Z" transform="translate(0 -53.873)" fill="#038970"/>
      <path id="Path_3" data-name="Path 3" d="M184.347,108.218a1.513,1.513,0,0,0,0-3.025,12.758,12.758,0,0,0-12.594,10.994,1.513,1.513,0,0,0,1.294,1.7,1.531,1.531,0,0,0,.206.014,1.513,1.513,0,0,0,1.5-1.308A9.722,9.722,0,0,1,184.347,108.218Z" transform="translate(-148.336 -98.084)" fill="#038970"/>
      <path id="Path_4" data-name="Path 4" d="M219.13,288.173a1.513,1.513,0,0,0,1.008-2.641l-5.5-4.915a2.5,2.5,0,0,0-3.328,0l-5.5,4.915a1.513,1.513,0,1,0,2.015,2.256l3.638-3.25v18.608a1.513,1.513,0,1,0,3.025,0V284.539l3.638,3.25A1.506,1.506,0,0,0,219.13,288.173Z" transform="translate(-177.335 -248.661)" fill="#038970"/>
    </g>
  </g>
</svg>
