<svg xmlns="http://www.w3.org/2000/svg" width="42" height="42" viewBox="0 0 42 42">
  <g id="Group_7" data-name="Group 7" transform="translate(0)">
    <path id="Path_6" data-name="Path 6" d="M9.316,152.319l-1.463,5.462-5.348.113a21.055,21.055,0,0,1-.155-19.626h0l4.761.873L9.2,143.874a12.546,12.546,0,0,0,.118,8.445Z" transform="translate(0 -126.934)" fill="#fbbb00"/>
    <path id="Path_7" data-name="Path 7" d="M281.815,208.176a21.01,21.01,0,0,1-7.493,20.317h0l-6-.306-.849-5.3a12.527,12.527,0,0,0,5.39-6.4H261.626v-8.315h20.189Z" transform="translate(-240.182 -191.12)" fill="#518ef8"/>
    <path id="Path_8" data-name="Path 8" d="M62.179,321.413h0a21.025,21.025,0,0,1-31.671-6.43l6.811-5.576a12.5,12.5,0,0,0,18.013,6.4Z" transform="translate(-28.004 -284.041)" fill="#28b446"/>
    <path id="Path_9" data-name="Path 9" d="M60.708,4.839,53.9,10.413a12.5,12.5,0,0,0-18.426,6.544l-6.847-5.606h0A21.022,21.022,0,0,1,60.708,4.839Z" transform="translate(-26.274)" fill="#f14336"/>
  </g>
</svg>
