<svg xmlns="http://www.w3.org/2000/svg" width="42" height="42" viewBox="0 0 42 42">
  <g id="Sogou" transform="translate(-2511 -3023)">
    <circle id="Ellipse_37" data-name="Ellipse 37" cx="21" cy="21" r="21" transform="translate(2511 3023)" fill="#f74b1a"/>
    <path id="Path_2215" data-name="Path 2215" d="M76.219,75.671A9.893,9.893,0,0,1,70.5,78.223a31.358,31.358,0,0,1-16.881-2.414c-.338-.138-.538-.292-.523-.707.031-1.537.015-3.06.015-4.766A36.881,36.881,0,0,0,60.6,73.549a14.9,14.9,0,0,0,6.98.415A1.685,1.685,0,0,0,69.1,72.488c.108-.83-.369-1.261-1.03-1.6A49.463,49.463,0,0,0,61.2,68.26a20.978,20.978,0,0,1-6.134-3.106,5.059,5.059,0,0,1-.154-7.841,11.988,11.988,0,0,1,6.919-2.429,35.759,35.759,0,0,1,14.744,2.337c.338.123.507.261.477.646-.077,1.168-.154,2.352-.184,3.521-.015.507-.138.6-.646.415a47.736,47.736,0,0,0-7.4-2.26,15.556,15.556,0,0,0-5.719-.092,1.589,1.589,0,0,0-1.414,1.23c-.169.769.384,1.092.953,1.4a42.46,42.46,0,0,0,6.626,2.629,21.955,21.955,0,0,1,6.473,3.275A5.24,5.24,0,0,1,76.219,75.671Z" transform="translate(2466.278 2977.523)" fill="#fff"/>
  </g>
</svg>
