<svg xmlns="http://www.w3.org/2000/svg" xmlns:xlink="http://www.w3.org/1999/xlink" width="42" height="42" viewBox="0 0 42 42">
  <defs>
    <clipPath id="clip-path">
      <circle id="Ellipse_35" data-name="Ellipse 35" cx="21" cy="21" r="21" transform="translate(2246 3037)" fill="#fff"/>
    </clipPath>
  </defs>
  <g id="tinyeye" transform="translate(-2246 -3037)">
    <circle id="Ellipse_34" data-name="Ellipse 34" cx="21" cy="21" r="21" transform="translate(2246 3037)" fill="#fff"/>
    <g id="Mask_Group_1" data-name="Mask Group 1" clip-path="url(#clip-path)">
      <g id="Group_171" data-name="Group 171" transform="translate(2250.09 3038.515)">
        <path id="Path_1843" data-name="Path 1843" d="M694.767,375.3a4.959,4.959,0,0,1-4.5,4.283,1.021,1.021,0,0,0-1.161-.208,1.569,1.569,0,0,1-1.225.018c-1.036.051-1.789-.785-2.776-.885-.488-.207-1.023-.265-1.513-.467a2.931,2.931,0,0,1-.841-.318.388.388,0,0,1-.058-.3.65.65,0,0,1,.654-.34,3.263,3.263,0,0,0,3.537-2.315.871.871,0,0,1,.615-.82c.2.03.309.151.339.51.834-1.512.792-3.225,1.744-4.54.523-.052.49.413.651.7a4.158,4.158,0,0,0,.254.672c.23.477.707.723,1.042,1.1a7.658,7.658,0,0,1,1.078,1.347c.091.225.169.455.25.683.119.469.314.78.871.486a.922.922,0,0,1,.8-.125C694.735,374.9,694.658,375.146,694.767,375.3Z" transform="translate(-663.583 -344.103)" fill="#71b8d3"/>
        <path id="Path_1844" data-name="Path 1844" d="M741.66,356.85a13.227,13.227,0,0,1,1.22,2.945A4.342,4.342,0,0,0,744,362.01c.7.627.5,1.469-.245,2.213-.1-.716.327-1.78-.692-1.733-.966.044-.309,1.012-.36,1.763a1.532,1.532,0,0,1-.629-2.176,1.174,1.174,0,0,0,.06-1.09,17.826,17.826,0,0,0-10.1-9.483c-.472.362-.634,1.014-1.207,1.284a1.873,1.873,0,0,1-1.921-.022,1.468,1.468,0,0,1-.44-.7c.1-.826.783-.529,1.29-.674a3.524,3.524,0,0,1-.8-2.351,2.941,2.941,0,0,1,1.1-2.237c.259-.195.494-.447.869-.366.817.313.974,1.045,1.124,1.781l-.016.034c.07.171-.028.273-.145.368-.181.132-.36.268-.118.5a4.6,4.6,0,0,0,.944.7c.495.3.972.627,1.493.881.518.339,1,.72,1.493,1.1a4.3,4.3,0,0,0,.907.6,3.937,3.937,0,0,1,.461.33,19.748,19.748,0,0,1,2.659,2.889c.211.322.487.594.722.9A.956.956,0,0,0,741.66,356.85Z" transform="translate(-699.534 -325.644)" fill="#020202"/>
        <path id="Path_1846" data-name="Path 1846" d="M676.979,255.1c.4-.026,1.089.645,1.072-.43.035,0,.085,0,.1.017a1.078,1.078,0,0,0,1.456.007c.363-.319-.161-.423-.472-.454-.17-.017-.338-.045-.544-.073,1.119-1.218.568-2.735.845-4.273.711.943,1.238.616,1.829.059.492-.464,1.127-.162,1.229.517.054.358.288.423.667.139.335-.251.564-.637,1.036-.7.271-.039.491-.488.816-.064.13.169.38.355.173.523-.283.23-.084.965-.808.743-.332-.1-.605.125-.787.419-.249.123-.46,0-.674-.1a1.059,1.059,0,0,0-1.023,0c-.662.341-1.092.8-.874,1.616.212.5.689.743,1.077,1.073a2.02,2.02,0,0,1,.414.795c.087.3.142.6.236.9a3.492,3.492,0,0,1,.074.962c-.054.773-.44.893-1.059.529-.244-.143-.489-.283-.738-.415a4.819,4.819,0,0,0-.982-.346,2.7,2.7,0,0,1-.393-.2,3.8,3.8,0,0,0-.7-.267,10.805,10.805,0,0,0-1.236-.3C677.352,255.725,676.907,255.676,676.979,255.1Z" transform="translate(-659.099 -249.664)" fill="#fcfcfc"/>
        <path id="Path_1847" data-name="Path 1847" d="M639.24,271.224l.652.481c-.051.529-.542.4-.839.564a1.5,1.5,0,0,1-.46.051c-.716-.18-1.19.245-1.008.91a.4.4,0,0,1-.26.333,12.711,12.711,0,0,0-2.186.413c-.293.116-.6.169-.9.265a13.437,13.437,0,0,0-1.453.254,11.193,11.193,0,0,0-1.514.186,1.4,1.4,0,0,1-1.033-.115.853.853,0,0,1-.2-.823,1.121,1.121,0,0,1,.639-.764,5.558,5.558,0,0,1,3.63-1.757c1.235-.679,2.6-.158,3.887-.432C638.617,270.7,638.9,271.052,639.24,271.224Z" transform="translate(-622.223 -266.242)" fill="#020202"/>
        <path id="Path_1848" data-name="Path 1848" d="M635.659,385.584c-1.041-.913-1.151-2.3-1.747-3.437a1.543,1.543,0,0,1-.329-.9,6.04,6.04,0,0,0-.068-2.2c-.068-.256-.144-.51-.193-.772a.578.578,0,0,1,.127-.453c.928-.039,1.312.6,1.636,1.313.447,1.053.8,2.171,1.98,2.692a.6.6,0,0,1,.376.684,1.012,1.012,0,0,1-.4.593c-1.011.514-.471.941.047,1.381.092.038.181.08.272.119a4.016,4.016,0,0,1,2.872,1.547c.029.375-.226.532-.51.667-.218.075-.468.043-.664.2a3.534,3.534,0,0,1-2.359-.607C636.632,385.778,636.4,385.354,635.659,385.584Z" transform="translate(-624.819 -350.303)" fill="#74bbd8"/>
        <path id="Path_1849" data-name="Path 1849" d="M601.346,376.083c-2.851,1.753-4.342,4.558-5.76,7.423-.161.325.065.534.131.8a1.28,1.28,0,0,1-.716,1.711c-.188-.472.8-1.267-.244-1.385-.745-.084-.457.705-.589,1.3-.554-.657-.576-1.379-.1-1.742,1.064-.815,1.044-2.025,1.431-3.092.116-.32.262-.629.394-.943a3.369,3.369,0,0,0,.772-.946c.3-.655.8-1.19,1.076-1.855.569-.87,1.445-1.46,2.066-2.283.2-.217.3-.55.661-.592.563.09.785.52.982.978A.641.641,0,0,1,601.346,376.083Z" transform="translate(-593.731 -347.681)" fill="#030304"/>
        <path id="Path_1850" data-name="Path 1850" d="M626.794,316.326l-.646-.2a1.312,1.312,0,0,0-.694-.372,5.094,5.094,0,0,0-1.059-.4,1.962,1.962,0,0,1-.917-.547.463.463,0,0,1,.077-.457c.516-.252.937.212,1.424.185a16.457,16.457,0,0,0,9.616-.066c1.128-.492,2.252-1,3.394-1.466.455-.326,1.051-.413,1.444-.849.374-.2.777-.337,1.167-.5a2.141,2.141,0,0,0,1.533-2.059,1.31,1.31,0,0,1,.206-.7.3.3,0,0,1,.271-.115,1.127,1.127,0,0,1,.485,1.237c-.171.338-.061.776-.369,1.069-.911,1.3-2.515,1.6-3.668,2.556a14.292,14.292,0,0,1-1.859.808c-.333.09,0,.232-.067.331a1.112,1.112,0,0,1-.985.412c-1.081.037-1.967.713-3.034.883a18.439,18.439,0,0,1-2.951.265h-1.6C627.974,316.361,627.384,316.3,626.794,316.326Z" transform="translate(-617.069 -296.085)" fill="#69abc3"/>
        <path id="Path_1852" data-name="Path 1852" d="M609.745,351.191c1.245-1.4,2.9-1.309,4.549-1.257.208.154.487-.046.689.136a8.6,8.6,0,0,0,1.565,1.259,11.553,11.553,0,0,1,2.423,2.754.882.882,0,0,1-.084.783.454.454,0,0,1-.449.094c-.293-.171-.333-.5-.489-.762a3.581,3.581,0,0,0-.912-.908c-.291-.241-.614-.437-.925-.652a2.309,2.309,0,0,1-.6-.619,4.174,4.174,0,0,0-2.6-1.021c-1.155-.036-1.591.343-1.737,1.528a.46.46,0,0,1-.315.385,2.342,2.342,0,0,1-1.553-.18.83.83,0,0,1,.035-.889l-.008,0C609.558,351.676,609.783,351.517,609.745,351.191Z" transform="translate(-605.873 -328.387)" fill="#83c6dc"/>
        <path id="Path_1853" data-name="Path 1853" d="M663.351,331.093l.878-.407c.6-.608,1.488-.686,2.135-1.2.335-.148.652-.4,1.048-.172l-.2.691.913.048a.33.33,0,0,1-.055.3c-1.387.843-2.952,1.318-4.371,2.1-.353.123-.71.235-1.057.375a9.371,9.371,0,0,1-2.6.723,6.058,6.058,0,0,1-1.8-.1.51.51,0,0,1-.262-.248c.623-.385,1.378.064,2.055-.312-.191-.4-.561-.21-.819-.3a.238.238,0,0,1,.108-.281C660.694,331.974,661.986,331.41,663.351,331.093Z" transform="translate(-644.191 -312.139)" fill="#fafbfb"/>
        <path id="Path_1854" data-name="Path 1854" d="M716.462,330.235a3.757,3.757,0,0,1,1.881,1.417c.6.662.632,1.208-.333,1.533-.526-.522-1.4-.559-1.787-1.27a.279.279,0,0,1,.271-.11c-.091-.065-.181-.012-.262.017a1.933,1.933,0,0,1-1.141.021c-.386-.094.116.185-.067.209a.66.66,0,0,1-.812.2c-1.288-1.074-2.6-.482-3.894-.031-.33.115-.6.371-.95.47a.7.7,0,0,1-.634-.12.392.392,0,0,1,0-.335,2.809,2.809,0,0,1,1.5-.957A18.7,18.7,0,0,1,716.462,330.235Z" transform="translate(-684.011 -312.926)" fill="#78c0da"/>
        <path id="Path_1856" data-name="Path 1856" d="M731.658,337.765a1.354,1.354,0,0,0,.9-.194,1.353,1.353,0,0,1,1.206,0c.621.385,1.533.364,1.778,1.273-.719.626-1.52,1.2-1.487,2.31a6.683,6.683,0,0,0-1.116-1.669c-.5-.335-1.105-.024-1.617-.274-.669-.337.01-.883-.2-1.294C731.276,337.781,731.435,337.662,731.658,337.765Z" transform="translate(-701.542 -318.586)" fill="#296594"/>
        <path id="Path_1857" data-name="Path 1857" d="M662.2,408.64a.888.888,0,0,0,.619-.413,4.677,4.677,0,0,1,1.624-1.939,4.179,4.179,0,0,1,1.024-.448,1.682,1.682,0,0,1,.334-.064c.583-.017,1.137.194,1.714.219a2.393,2.393,0,0,1,1.5.67,9.177,9.177,0,0,0-3.638,1.139,9.517,9.517,0,0,1-2.788,1.041C662.365,408.957,662.17,409.013,662.2,408.64Z" transform="translate(-647.498 -372.257)" fill="#07090a"/>
        <path id="Path_1858" data-name="Path 1858" d="M724.676,374.787a1.917,1.917,0,0,0,1.936-.034c1.057-.255.592.728.888,1.092a1.775,1.775,0,0,1-.21,1.072c-.29.127-.547-.051-.819-.091a1.437,1.437,0,0,0-1.6.484c-.176.253-.413.516-.786.254l-1.072-1.289c.14-.2.248-.467.5-.506A1.223,1.223,0,0,0,724.676,374.787Z" transform="translate(-695.252 -347.863)" fill="#63abcb"/>
        <path id="Path_1859" data-name="Path 1859" d="M641.459,348.04l1.964-.043c.183.126.361.255.232.521-.564.581-1.391.346-2.041.659-.182.048-.41.007-.434.31a1.233,1.233,0,0,1-.545.929c-.464.041-.7-.3-.94-.6a1.516,1.516,0,0,0-1.383-.631c-.457-.1-.909-.228-1.367-.333a.672.672,0,0,1-.221-.182c-.082-.253.1-.342.273-.43l.891-.064C639.073,347.976,640.275,348.24,641.459,348.04Z" transform="translate(-627.478 -326.884)" fill="#262626"/>
        <path id="Path_1860" data-name="Path 1860" d="M602.441,271.1c1.448-.137,2.026.374,2.118,1.874-.2.549-.348,1.136-.988,1.367-.268-.064-.4-.37-.692-.39a1.671,1.671,0,0,0-.475.124,1.071,1.071,0,0,1-.886-.819c-.013-.436-.359-1.074.59-.9.353.065.4-.178.341-.471C602.395,271.622,602.172,271.361,602.441,271.1Z" transform="translate(-599.79 -266.478)" fill="#d76c17"/>
        <path id="Path_1861" data-name="Path 1861" d="M701.632,290.016l.259.423a7.949,7.949,0,0,0,.871,1.42,1.548,1.548,0,0,1-.049,2.207l.012.009c-1.018.948-1.994.6-2.481-.876a1.2,1.2,0,0,1-.028-.5,1.056,1.056,0,0,1,.289-.54c.239-.149.432.037.642.085.488-.348.171-.777.123-1.178a1.776,1.776,0,0,1-.055-.307C701.253,290.454,701.147,290.068,701.632,290.016Z" transform="translate(-677.341 -281.352)" fill="#080b0d"/>
        <path id="Path_1862" data-name="Path 1862" d="M610.791,299.836l-.621-1.129a2.683,2.683,0,0,1-.5-1.668c-.013-.58.345-1.092.31-1.676a19.994,19.994,0,0,1,1.062-2.891c.263-.426.5-.881,1.081-.948a.442.442,0,0,1,.338.328c.053.8-.68,1.208-.935,1.874a5.734,5.734,0,0,0-.331,3.845,3.214,3.214,0,0,1,.1.617c-.084.479.481.939.05,1.431A.955.955,0,0,1,610.791,299.836Z" transform="translate(-606.248 -282.536)" fill="#6babc2"/>
        <path id="Path_1864" data-name="Path 1864" d="M609.9,281.1l.985-1.194a4.2,4.2,0,0,0,1.039,1.951c.033.731-.723.917-.993,1.441-.315.273-.354,1.163-1.093.49C609.706,282.887,609.121,281.977,609.9,281.1Z" transform="translate(-606.117 -273.412)" fill="#f9fbfa"/>
        <path id="Path_1865" data-name="Path 1865" d="M728,383.928c.157-.063.368-.081.463-.2a1.76,1.76,0,0,1,2.746-.451,9.307,9.307,0,0,1-.853,2.148.443.443,0,0,1-.209-.427c-.249-.308-.472-.6-.936-.258a.64.64,0,0,1-1-.171Z" transform="translate(-699.172 -354.227)" fill="#69b2d1"/>
        <path id="Path_1866" data-name="Path 1866" d="M714.864,329.208c-1.867.527-3.837.52-5.7,1.17-.715.25-1.306.691-2.007.921-.366.069-.424-.2-.5-.452.107-.467.573-.508.878-.741a2.761,2.761,0,0,0,.871-.408,5.428,5.428,0,0,1,.646-.246c.446-.064.922.119,1.344-.164a1.237,1.237,0,0,1,.3-.031c.88-.254,1.8-.127,2.689-.321A2.567,2.567,0,0,1,714.864,329.208Z" transform="translate(-682.413 -311.899)" fill="#6ba6c2"/>
        <path id="Path_1869" data-name="Path 1869" d="M695.86,261.285a1.385,1.385,0,0,1-1.109-1c-.229-.534.1-.738.527-.76a.919.919,0,0,0,.852-.667c.5-.462.813.562,1.309.17.041-.016.082-.031.123-.045.551.992.367,1.608-.6,2.017a.365.365,0,0,1-.251.049c-.152-.044-.3-.13-.465-.036C696.109,261.095,696,261.212,695.86,261.285Z" transform="translate(-673.002 -256.788)" fill="#d56c19"/>
        <path id="Path_1871" data-name="Path 1871" d="M743.963,355.173l.231-.23a17.619,17.619,0,0,1,5.969,3.882c-.083.16-.012.4-.24.486-.684-.073-.949-.775-1.523-1.013-.476-.32-.925-.677-1.394-1.005a2.493,2.493,0,0,0-.837-.451,2.166,2.166,0,0,1-.261-.111,8.762,8.762,0,0,1-1.395-.778C744.313,355.7,743.88,355.619,743.963,355.173Z" transform="translate(-711.699 -332.339)" fill="#0f0e0e"/>
        <path id="Path_1872" data-name="Path 1872" d="M654.936,267.075a20.734,20.734,0,0,0-4.933,0c-.058-.274.9-.028.3-.576-.163-.149-.124-.238.071-.246.534-.021.684-.591,1.111-.759.583,1.21,1.314,1.427,2.289.625a.835.835,0,0,1,.96-.187c.554.225-.077.438.012.652C654.811,266.745,654.872,266.911,654.936,267.075Z" transform="translate(-637.919 -262.094)" fill="#fcfcfc"/>
        <path id="Path_1873" data-name="Path 1873" d="M607.9,283.63a14.529,14.529,0,0,0,.157,2.9.673.673,0,0,1,.145.64c-.133.29-.124.711-.615.677q-.214-1.737-.428-3.473c.022-.411-.448-.81-.031-1.231C607.526,283.086,607.824,283.185,607.9,283.63Z" transform="translate(-604.118 -275.943)" fill="#1f1e1f"/>
        <path id="Path_1874" data-name="Path 1874" d="M782.144,388.406c-.4.079-.242.525-.45.8l-1.681-1.884c.13-.356.6-.19.76-.5a.774.774,0,0,1,.344-.226A5.069,5.069,0,0,1,782.144,388.406Z" transform="translate(-740.017 -357.2)" fill="#0b0b0b"/>
        <path id="Path_1875" data-name="Path 1875" d="M697.254,321.285l-1,.31a.19.19,0,0,1-.269-.025c-.047-.773.715-.575,1.066-.786A28.646,28.646,0,0,0,699.64,319a.834.834,0,0,1-.125.853,1.331,1.331,0,0,0-.722.671Z" transform="translate(-674.033 -304.112)" fill="#69a9c0"/>
        <path id="Path_1876" data-name="Path 1876" d="M708.818,295.61a2,2,0,0,0-.472-2.581,1.062,1.062,0,0,1-.35-1.046,5.309,5.309,0,0,1,1.709,3c-.151.453.065.909-.014,1.362-.045.261.027.609-.42.577A1.453,1.453,0,0,0,708.818,295.61Z" transform="translate(-683.446 -282.897)" fill="#69a9c0"/>
        <path id="Path_1877" data-name="Path 1877" d="M619.331,365.546l-.606-.639c-.378-1.183.7-.494,1.015-.794a1.606,1.606,0,0,1,.318-.039,2.041,2.041,0,0,1,1.507.82.342.342,0,0,1-.231.368c-.376.122-.682-.119-1.012-.195-.052-.013-.1-.079-.145-.081-.142-.006-.092.17-.036.038s.193.1.081.029c.236.114.507.184.491.524a.832.832,0,0,1-.7.54A.731.731,0,0,1,619.331,365.546Z" transform="translate(-613.297 -339.509)" fill="#5097bf"/>
        <path id="Path_1878" data-name="Path 1878" d="M607.474,383.907c-.065.806-.747,1.264-1.085,1.916-.243.115-.36-.024-.447-.222.449-1.019.711-2.151,1.712-2.838C608.143,383.232,607.557,383.53,607.474,383.907Z" transform="translate(-603.321 -354.186)" fill="#222"/>
        <path id="Path_1879" data-name="Path 1879" d="M616.378,370.928l.62.473c.187.067.186.205.136.362l-.519.677c-.411-.141-.534.27-.791.42-.294.171-.533.528-.938.226A5.727,5.727,0,0,1,616.378,370.928Z" transform="translate(-610.343 -344.892)" fill="#141719"/>
        <path id="Path_1880" data-name="Path 1880" d="M621.142,285.554l-.217-.219c-.114-.425.308-.562.455-.846l.177-.273c.4-.5.847-.867,1.544-.626q-.016.447-.031.894a.32.32,0,0,1,.078.384.312.312,0,0,1-.239.113c-.377-.1-.554.235-.821.376C621.79,285.5,621.529,285.838,621.142,285.554Z" transform="translate(-615.071 -276.247)" fill="#68a5bc"/>
        <path id="Path_1881" data-name="Path 1881" d="M774.83,375.94l-.251.3a5.764,5.764,0,0,1-2.573-2.794.448.448,0,0,1,.187-.423C773.448,373.657,774.01,374.915,774.83,375.94Z" transform="translate(-733.729 -346.539)" fill="#050505"/>
        <path id="Path_1882" data-name="Path 1882" d="M712.38,307.916c.375-.378.223-.847.171-1.27-.038-.309-.067-.539.264-.669a4.844,4.844,0,0,1-.033,3.162c-.148.247-.247.542-.587.6a.354.354,0,0,1-.255-.118,1.544,1.544,0,0,1,.224-.851Z" transform="translate(-686.557 -293.885)" fill="#6f9cac"/>
        <path id="Path_1883" data-name="Path 1883" d="M602,271.175c-.048.367.334.541.39.853.1.549-.043,1.061-.7.735-.916-.457-.458.338-.615.569C600.672,272.245,600.866,271.792,602,271.175Z" transform="translate(-599.347 -266.556)" fill="#e3975b"/>
        <path id="Path_1884" data-name="Path 1884" d="M612.789,362.75a.511.511,0,0,1-.645.206c-.481-.148-.427.168-.431.45l-1.935-.845q-.084-.07-.053-.137c.021-.044.04-.066.06-.066l1.71-.026C612.065,362.042,612.526,362.091,612.789,362.75Z" transform="translate(-606.284 -338.009)" fill="#5197bb"/>
        <path id="Path_1885" data-name="Path 1885" d="M613.309,377.88c.405.024.609-.286.864-.515s.51-.54.866-.13l-2.118,2.173c-.205-.423.415-.716.18-1.143C613.105,378.1,613.09,377.928,613.309,377.88Z" transform="translate(-608.767 -349.687)" fill="#323232"/>
        <path id="Path_1886" data-name="Path 1886" d="M625.281,281.54c-.6,0-.989.517-1.544.626-.172-.839.028-1.36,1.026-1.246a9.048,9.048,0,0,0,.942.014Z" transform="translate(-617.251 -274.197)" fill="#f9fbfa"/>
        <path id="Path_1887" data-name="Path 1887" d="M674.3,265.309a2.886,2.886,0,0,0,1.148.383c.605-.029.507.472.492.842-.006.136.222.439-.2.43-.36-.008-.613-.083-.664-.5C675.021,266.007,674.389,265.965,674.3,265.309Z" transform="translate(-657 -261.95)" fill="#fcfcfc"/>
        <path id="Path_1888" data-name="Path 1888" d="M702.452,287.388a.354.354,0,0,0,.014.187c.014.536.535,1.218-.427,1.471l-.4-.382c-.373-.429.1-.793.089-1.195a8.116,8.116,0,0,0,.017-.823,1.588,1.588,0,0,1,.231-1.008.354.354,0,0,1,.487,0l.064.072-.056.079C702.609,286.326,702.125,286.851,702.452,287.388Z" transform="translate(-678.359 -277.839)" fill="#4f514f"/>
        <path id="Path_1889" data-name="Path 1889" d="M608.618,314.643l.23,1.689c-.884-.273-1.092-1.087-.6-2.365C608.746,313.986,608.382,314.48,608.618,314.643Z" transform="translate(-604.927 -300.162)" fill="#161a1b"/>
        <path id="Path_1890" data-name="Path 1890" d="M614.891,329.277a.44.44,0,0,1,.451-.264.565.565,0,0,1,.367.222,2.285,2.285,0,0,0,.933.861.628.628,0,0,1,.2.2l.007.419a.25.25,0,0,1,0,.386A3.764,3.764,0,0,1,614.891,329.277Z" transform="translate(-610.348 -311.976)" fill="#6ea0b0"/>
        <path id="Path_1891" data-name="Path 1891" d="M628.926,378.694q-.036-.289-.072-.578c-.028-.51.241-.268.407-.142.213.162.357.447.7.3.244.158.207.41.217.647a1.51,1.51,0,0,1,.046,1.1c-.064.419-.317.174-.472-.029C629.424,379.593,629.424,378.985,628.926,378.694Z" transform="translate(-621.311 -350.292)" fill="#5b9dbe"/>
        <path id="Path_1892" data-name="Path 1892" d="M740.675,372.212c-.5-.2-.121-1.112-.888-1.092.424-.293.38-1.1,1.136-1.031A7.083,7.083,0,0,1,740.675,372.212Z" transform="translate(-708.428 -344.229)" fill="#5fa1c1"/>
        <path id="Path_1893" data-name="Path 1893" d="M609.562,305.241c-.222-.171-.049-.56-.373-.675.354-.61.086-1.27.153-1.9.344-.092.2-.514.45-.668.376.5.109,1,0,1.5Z" transform="translate(-605.87 -290.759)" fill="#6194a3"/>
        <path id="Path_1894" data-name="Path 1894" d="M639.025,343.122c.53-.415,1.144-.106,1.712-.2.459.231.949.048,1.421.107a.876.876,0,0,1,.288.044.171.171,0,0,1,.054.167q-.023.085-.048.085A8.4,8.4,0,0,1,639.025,343.122Z" transform="translate(-629.3 -322.881)" fill="#5a97ad"/>
        <path id="Path_1895" data-name="Path 1895" d="M706.883,412.076c.377-.05.82.124,1.12-.18.686-.694,1-.279,1.266.37A5.246,5.246,0,0,1,706.883,412.076Z" transform="translate(-682.589 -376.781)" fill="#74b7d9"/>
        <path id="Path_1896" data-name="Path 1896" d="M644.218,411.913c.446.185.095-.932.706-.44.4.325.783.694.334,1.262A2.657,2.657,0,0,1,644.218,411.913Z" transform="translate(-633.378 -376.632)" fill="#79bddd"/>
        <path id="Path_1897" data-name="Path 1897" d="M671.9,275.4c.219-.3.738.094.886-.377l.212-.022c.554.739,1.558.271,2.184.816l-.1.135a1.813,1.813,0,0,1-1.134.147,1.7,1.7,0,0,1-.316-.065c-.523-.24-1.113-.27-1.638-.507Z" transform="translate(-655.114 -269.563)" fill="#689aab"/>
        <path id="Path_1898" data-name="Path 1898" d="M703.266,272.547l-.374-.049c-.268-.144-.119-.4-.16-.6a16.968,16.968,0,0,0-.2-2.452,1.586,1.586,0,0,1-.016-.323c.043-.168.119-.294.327-.238l.27.074q-.016.9-.033,1.809c.179.437-.049.921.157,1.355Z" transform="translate(-679.16 -264.745)" fill="#0a0c0c"/>
        <path id="Path_1899" data-name="Path 1899" d="M633.038,384.067c.13,0,.326.24.365-.079s.042-.664.061-1a3.312,3.312,0,0,1,.059,2.366c-.166.007-.219-.09-.221-.236Z" transform="translate(-624.599 -354.366)" fill="#69a9c8"/>
        <path id="Path_1900" data-name="Path 1900" d="M726.788,328.754a10.623,10.623,0,0,1-3,.426c-.054-.047-.071-.093-.053-.139s.036-.069.055-.069A7.438,7.438,0,0,1,726.788,328.754Z" transform="translate(-695.814 -311.717)" fill="#599ab7"/>
        <path id="Path_1901" data-name="Path 1901" d="M617.359,288.055c.165.452-.414.5-.455.846l-.859.86c-.2.031-.308-.025-.24-.25l1.053-1.255C616.965,288.041,617.179,288.09,617.359,288.055Z" transform="translate(-611.05 -279.812)" fill="#6495a8"/>
        <path id="Path_1902" data-name="Path 1902" d="M645.79,347.82a17.313,17.313,0,0,1-3.571.139c1.107-.385,2.263-.077,3.385-.241A.366.366,0,0,1,645.79,347.82Z" transform="translate(-631.808 -326.665)" fill="#83c6dc"/>
        <path id="Path_1903" data-name="Path 1903" d="M758.509,337.112a.359.359,0,0,1,.407.377c.012.313-.156.451-.455.431-.258-.018-.359-.183-.352-.427A.355.355,0,0,1,758.509,337.112Z" transform="translate(-722.815 -318.336)" fill="#fafef8"/>
        <path id="Path_1904" data-name="Path 1904" d="M712.232,321.2c.235-.124.268-.491.6-.5a2.613,2.613,0,0,1-.054.625c-.068.208.122.584-.252.6-.25.009-.392-.272-.526-.482C712,321.291,712.146,321.276,712.232,321.2Z" transform="translate(-686.606 -305.45)" fill="#fafbfb"/>
        <path id="Path_1906" data-name="Path 1906" d="M604.263,395.98l.447.222c-.041.562-.488.684-.906.838Z" transform="translate(-601.641 -364.565)" fill="#1f1f1f"/>
        <path id="Path_1907" data-name="Path 1907" d="M633.177,392.912l.22.236.17.851C632.738,393.285,632.725,393.247,633.177,392.912Z" transform="translate(-624.474 -362.156)" fill="#f3fbfd"/>
        <path id="Path_1908" data-name="Path 1908" d="M713.149,330.869c-.171.242-.427.188-.666.191a.4.4,0,0,1-.687-.052c-.025-.207.116-.284.274-.348l.653-.05a.462.462,0,0,1,.423-.006A.215.215,0,0,1,713.149,330.869Z" transform="translate(-686.444 -313.189)" fill="#69442c"/>
        <path id="Path_1909" data-name="Path 1909" d="M704.966,332.079q.028-.093.052-.187l.388-.051c.288-.106.528-.41.888-.21.175.3.021.508-.194.7a.621.621,0,0,1-.453.117A1.031,1.031,0,0,1,704.966,332.079Z" transform="translate(-681.083 -313.979)" fill="#4a3330"/>
        <path id="Path_1910" data-name="Path 1910" d="M654.982,343.74c0-.064,0-.128.006-.192a3.7,3.7,0,0,1,1.978.022c-.036.053-.07.108-.1.163Z" transform="translate(-641.831 -323.293)" fill="#72a2b5"/>
        <path id="Path_1911" data-name="Path 1911" d="M608.25,359.8c0,.068,0,.136-.007.2-.875-.348-.353-.724-.022-1.1Q608.235,359.357,608.25,359.8Z" transform="translate(-604.75 -335.455)" fill="#85c6d8"/>
        <path id="Path_1912" data-name="Path 1912" d="M704.048,256.728l.589.31q.03.164.061.327l-.07.081c-.583.208-.806.023-.866-.719A.225.225,0,0,1,704.048,256.728Z" transform="translate(-680.138 -255.171)" fill="#d56c19"/>
        <path id="Path_1913" data-name="Path 1913" d="M627.164,338.869a1.289,1.289,0,0,1,1.077.43.319.319,0,0,1-.446.009,1.031,1.031,0,0,1-.847-.228C626.9,338.891,626.939,338.782,627.164,338.869Z" transform="translate(-619.803 -319.692)" fill="#599aae"/>
        <path id="Path_1915" data-name="Path 1915" d="M705.232,288.3a1.693,1.693,0,0,1,.021-1.6.979.979,0,0,1,.176.711C705.147,287.662,705.28,288,705.232,288.3Z" transform="translate(-681.139 -278.752)" fill="#0a0c0c"/>
        <path id="Path_1916" data-name="Path 1916" d="M707.9,330.947l-.884.163a1.024,1.024,0,0,1,1.3-.389l-.274.2Z" transform="translate(-682.692 -313.25)" fill="#fafbfb"/>
        <path id="Path_1917" data-name="Path 1917" d="M716.51,330.208l-.387-.077a3.6,3.6,0,0,1,1.694-.167q0,.1,0,.208l0,0A1.438,1.438,0,0,1,716.51,330.208Z" transform="translate(-689.845 -312.709)" fill="#72a7b8"/>
        <path id="Path_1918" data-name="Path 1918" d="M634.055,348.979l-.172.385a.251.251,0,0,1-.285.062c-.215-.084-.5.016-.642-.258A1.39,1.39,0,0,1,634.055,348.979Z" transform="translate(-624.534 -327.621)" fill="#8d755d"/>
        <path id="Path_1919" data-name="Path 1919" d="M606.309,283.186c-.179.416.247.816.031,1.232l-.428-.837C605.945,283.35,606.019,283.159,606.309,283.186Z" transform="translate(-603.297 -275.987)" fill="#a8856e"/>
        <path id="Path_1920" data-name="Path 1920" d="M624.877,337.394l-.216.211a.669.669,0,0,1-.641-.259q0-.193,0-.386A1.274,1.274,0,0,1,624.877,337.394Z" transform="translate(-617.516 -318.217)" fill="#589eb2"/>
        <path id="Path_1921" data-name="Path 1921" d="M630.955,340.991l.446-.009c.313,0,.62.007.64.435A2.059,2.059,0,0,1,630.955,340.991Z" transform="translate(-622.963 -321.376)" fill="#78a1b5"/>
        <path id="Path_1922" data-name="Path 1922" d="M610.273,355.877c.492.613-.048.573-.409.646A.757.757,0,0,1,610.273,355.877Z" transform="translate(-606.4 -333.072)" fill="#85c6d8"/>
        <path id="Path_1923" data-name="Path 1923" d="M660.515,419.087l.388.205a.744.744,0,0,1-.852.12C660.076,419.119,660.258,419.049,660.515,419.087Z" transform="translate(-645.812 -382.703)" fill="#8ca2ad"/>
        <path id="Path_1924" data-name="Path 1924" d="M709.918,322.977l-.232.241-.632.417a.6.6,0,0,1,.622-.673Z" transform="translate(-684.292 -307.225)" fill="#769ba6"/>
        <path id="Path_1925" data-name="Path 1925" d="M705.044,279.054a1.6,1.6,0,0,1-.157-1.355A3.527,3.527,0,0,1,705.044,279.054Z" transform="translate(-680.963 -271.68)" fill="#2e2e2f"/>
        <path id="Path_1931" data-name="Path 1931" d="M692.007,368.589c-.121.3-.459.485-.43.857a3.526,3.526,0,0,1-2.983,2.219c-.315-.412-.03-.671.237-.936a1.126,1.126,0,0,1,.267-.133c.58-.233.686-.753.776-1.284a4.117,4.117,0,0,0,1-1.9A37.583,37.583,0,0,1,692.461,364c.345-.355.341-1.112,1.116-.972a.8.8,0,0,1,.15.481,19.611,19.611,0,0,0-1.072,4.055A1.2,1.2,0,0,1,692.007,368.589Z" transform="translate(-668.117 -338.673)" fill="#7bc3dd"/>
        <path id="Path_1932" data-name="Path 1932" d="M705,369.953a6.9,6.9,0,0,0,.643-2.774c-.023-.907.742-1.525.862-2.377.764-.252.6.4.748.761a.406.406,0,0,1-.1.307,12.038,12.038,0,0,1-2.014,5.028C704.945,370.6,705.454,370.2,705,369.953Z" transform="translate(-681.11 -340.037)" fill="#73bbd6"/>
        <path id="Path_1933" data-name="Path 1933" d="M720.765,371.682c-.375.449.409.4.312.729l-1.979.759c-.354-.36-.855-.576-1.069-1.076.14-.678.78-.689,1.244-.935.289-.131.522-.383.863-.4.2.078.071.358.266.439Z" transform="translate(-691.341 -344.758)" fill="#5ca3c6"/>
        <path id="Path_1934" data-name="Path 1934" d="M714.384,361.318c0-.071,0-.142-.007-.213-.061-.508-.361-1.023.044-1.517.217-.055.286.1.354.25.051.311.061.666.538.349a2.959,2.959,0,0,0,.9-1.118c.3-.264.417-.037.507.207.1.26.081.544.157.809a1.6,1.6,0,0,1,.042.3,1.3,1.3,0,0,1-.034.3c-.1.273-.16.573-.468.709-.182.032-.369,0-.551.033-.472.083-.507.777-1.053.755Z" transform="translate(-688.344 -335.485)" fill="#4e92b8"/>
        <path id="Path_1935" data-name="Path 1935" d="M670.782,402.363l-.092.043-.1-.01c-.544-.062-1.109.414-1.637-.065-.262-.385-.167-.65.258-.833a2.934,2.934,0,0,1,1.64-.357,3.673,3.673,0,0,1,.838.145.821.821,0,0,1,.164.667q0,.086-.014.17C671.545,402.464,671.1,402.114,670.782,402.363Z" transform="translate(-652.688 -368.601)" fill="#81c3d9"/>
        <path id="Path_1936" data-name="Path 1936" d="M686.656,395.14a5.532,5.532,0,0,0,3-2.149c.046.051.139.11.133.153-.2,1.3-2.517,2.656-3.778,2.215C686.178,395.136,686.369,395,686.656,395.14Z" transform="translate(-666.201 -362.218)" fill="#66abc7"/>
        <path id="Path_1937" data-name="Path 1937" d="M729,389.391c.33.126.677.234.968-.045.779-.746.97-.348.964.474a2.253,2.253,0,0,0-.593.2C729.509,390.6,729.088,390.363,729,389.391Z" transform="translate(-699.958 -359.045)" fill="#6eb5d3"/>
        <path id="Path_1938" data-name="Path 1938" d="M683.5,398.664l-.641.219-.65.211c-.25-.155-.205-.408-.213-.643a3.15,3.15,0,0,1,1.651-.963c.16-.046.328.085.282.318C683.808,398.1,683.468,398.291,683.5,398.664Z" transform="translate(-663.044 -365.742)" fill="#7cc5e2"/>
        <path id="Path_1939" data-name="Path 1939" d="M717,370.077c.331-.385.458-.973,1.074-1.073a2.574,2.574,0,0,1,.4.724c.012.045.022.09.033.135-.22.6-.951.427-1.282.855Z" transform="translate(-690.533 -343.381)" fill="#5399c0"/>
        <path id="Path_1940" data-name="Path 1940" d="M678,406.033c.294-.333.706-.152,1.056-.239.287.08.629-.058.869.216Z" transform="translate(-659.91 -372.272)" fill="#66abc7"/>
        <path id="Path_1941" data-name="Path 1941" d="M725.087,350.715l-.066-.229c0-.984-.508-1.971.014-2.954a1.734,1.734,0,0,1,.744-.854c.592-.073,1.257-.448,1.639.382-1.458,1.278-1.452,3.064.016,4.6-.493.435-1.347-.346-1.715.51l-.291-.358a.62.62,0,0,1-.147-.251C725.183,351.288,725.238,350.978,725.087,350.715Z" transform="translate(-696.658 -325.733)" fill="#4c4c4e"/>
        <path id="Path_1942" data-name="Path 1942" d="M766.392,371.068l2.573,2.794c.121.958-.606.208-.854.423l-2.592-2.994c.019-.544-.834-.663-.631-1.3C765.6,370.057,765.808,370.827,766.392,371.068Z" transform="translate(-728.115 -344.159)" fill="#1b1b1b"/>
        <path id="Path_1943" data-name="Path 1943" d="M754.75,364.211a6.518,6.518,0,0,1,.944,1.118c.217.411-.166.176-.312.178a.437.437,0,0,1-.422-.214c-.138-.415-.7-.269-.862-.648a3.537,3.537,0,0,1-1.5-1.069c-.207-.172-.5-.289-.6-.537-.15-.372,0-.512.385-.331h0c.275.166.617.2.86.428A3.447,3.447,0,0,1,754.75,364.211Z" transform="translate(-717.977 -338.376)" fill="#232323"/>
        <path id="Path_1944" data-name="Path 1944" d="M747.361,359.852c-.64.462.308.538.211.868a3.076,3.076,0,0,1-1.5-.866c-.655-.525-.665-.567-.213-.862A6.648,6.648,0,0,1,747.361,359.852Z" transform="translate(-712.95 -335.518)" fill="#1c1c1c"/>
        <path id="Path_1945" data-name="Path 1945" d="M730.723,345.678c-.523-.435-1.153-.085-1.715-.235a.611.611,0,0,1,.627-.672c.565.2,1.338-.356,1.724.48C731.027,345.214,730.95,345.558,730.723,345.678Z" transform="translate(-699.963 -324.351)" fill="#060d14"/>
        <path id="Path_1946" data-name="Path 1946" d="M742.288,356.652c-.45.417.2.561.214.862-.556-.024-.879-.479-1.23-.784-.523-.453-.233-.722.373-.718Z" transform="translate(-709.38 -333.178)" fill="#131414"/>
        <path id="Path_1947" data-name="Path 1947" d="M761.962,372.018c.278.228.837.082.861.648C762.556,372.424,762.008,372.554,761.962,372.018Z" transform="translate(-725.842 -345.748)" fill="#1b1b1b"/>
        <path id="Path_1958" data-name="Path 1958" d="M696.03,257.241c.028.684-.011,1.259-.984.95-.379-.12-.428.268-.5.539-.386-1.031.11-1.608,1.015-1.975l.139.042A.532.532,0,0,1,696.03,257.241Z" transform="translate(-672.795 -255.233)" fill="#e2975c"/>
        <path id="Path_1959" data-name="Path 1959" d="M696.713,282.367l.064.577q-.04.562-.081,1.124c-.6.076-.8-.477-1.177-.744-.246-.3-.625-.473-.789-.848,0-.18.106-.262.262-.3a9.458,9.458,0,0,1,1.013.567c.6.434.485-.091.553-.383Q696.647,282.209,696.713,282.367Z" transform="translate(-673.045 -275.192)" fill="#659cb1"/>
        <path id="Path_1960" data-name="Path 1960" d="M687.91,280.4c.264.308.71.432.862.853-.052.051-.124.128-.173.111a6.208,6.208,0,0,1-2.624-1.351c.214-.341.6-.215.9-.33l.194.233C687.267,280.22,687.792,279.956,687.91,280.4Z" transform="translate(-666.17 -273.241)" fill="#67a1b9"/>
        <path id="Path_1961" data-name="Path 1961" d="M702.539,272.813l-.077-.017-.078,0q-.041-.489-.081-.978c-.1-.493-.1-1-.154-1.494a.583.583,0,0,1,.183-.324C702.763,270.914,702.445,271.879,702.539,272.813Z" transform="translate(-678.871 -265.638)" fill="#2e2e2f"/>
        <path id="Path_1962" data-name="Path 1962" d="M700.778,269.093a.611.611,0,0,0-.02.19c-.172.193,0,.488-.2.673l-.385-.732a.33.33,0,0,1,.162-.38.534.534,0,0,1,.413.245Z" transform="translate(-677.317 -264.726)" fill="#5d5751"/>
        <path id="Path_1963" data-name="Path 1963" d="M701.984,271.563c.067-.224-.014-.492.2-.672q0,.814-.009,1.628A1.773,1.773,0,0,1,701.984,271.563Z" transform="translate(-678.741 -266.333)" fill="#3d302c"/>
        <path id="Path_1964" data-name="Path 1964" d="M686.722,278.994c-.206.38-.571.254-.889.28l-.049-.123a.564.564,0,0,1,.249-.3l.051-.051A.894.894,0,0,1,686.722,278.994Z" transform="translate(-666.019 -272.548)" fill="#689aab"/>
        <path id="Path_1965" data-name="Path 1965" d="M691.9,281.254c-.251-.214-.678-.123-.845-.484.363.057.756.011,1.052.3Z" transform="translate(-670.156 -274.092)" fill="#5393a3"/>
        <path id="Path_1966" data-name="Path 1966" d="M700.9,256.051l-.245.062a.691.691,0,0,1-.79.005l-.11-.1A.86.86,0,0,1,700.9,256.051Z" transform="translate(-676.989 -254.494)" fill="#e2975c"/>
        <path id="Path_1967" data-name="Path 1967" d="M632.156,284.663a3.69,3.69,0,0,1,1.546-.192c.974.1,1.922-.228,2.9-.08a3.506,3.506,0,0,1-1.4-.125l.883-.213a10.892,10.892,0,0,1,2.145-.244c.461,1.22-.595,1.039-1.187,1.289a2.646,2.646,0,0,1-.517.09c-.277.019-.556.016-.833.018a1.923,1.923,0,0,0-1.347.288,2.1,2.1,0,0,1-.792.142,2.048,2.048,0,0,0-1.378.293.917.917,0,0,1-.832-.079.644.644,0,0,1-.159-.487C631.167,284.659,631.883,284.97,632.156,284.663Z" transform="translate(-623.136 -276.478)" fill="#d36915"/>
        <path id="Path_1968" data-name="Path 1968" d="M662.756,276.449c-.167-.177-.55.015-.6-.3-.042-.259.2-.317.421-.361.122-.024.325-.13.325-.2,0-1.445.617-.048.89-.2.195.281-.127.377-.2.564a2.2,2.2,0,0,1-.463.5l-.126.063A.245.245,0,0,1,662.756,276.449Z" transform="translate(-647.46 -269.506)" fill="#070307"/>
        <path id="Path_1969" data-name="Path 1969" d="M659.493,281.906a1.62,1.62,0,0,1,.2-.026.848.848,0,0,1,.3.7,1.145,1.145,0,0,1-.289.926,1.438,1.438,0,0,1-1.7-.128c.448-.333,1.466,0,1.273-1.083-.06-.052-.074-.093-.044-.125a.111.111,0,0,1,.08-.041Z" transform="translate(-644.197 -274.963)" fill="#d56d1d"/>
        <path id="Path_1970" data-name="Path 1970" d="M644.436,285.911h1.478c-1-.05-1.958.73-2.97.2A3.144,3.144,0,0,1,644.436,285.911Z" transform="translate(-632.377 -278.123)" fill="#d56d1d"/>
        <path id="Path_1971" data-name="Path 1971" d="M656.169,283.006a1.2,1.2,0,0,0-.036.166,4.49,4.49,0,0,1-2.13.244A3.3,3.3,0,0,1,656.169,283.006Z" transform="translate(-641.063 -275.841)" fill="#070307"/>
        <path id="Path_1972" data-name="Path 1972" d="M631.643,287.786c-.113.419-.86.109-.816.71-.188.029-.28-.064-.3-.242l.1-.416Z" transform="translate(-622.623 -279.601)" fill="#af7844"/>
        <path id="Path_1973" data-name="Path 1973" d="M668.22,277.337l.338-.424.451-.049.063.072a.37.37,0,0,1-.061.466A.619.619,0,0,1,668.22,277.337Z" transform="translate(-652.227 -271.025)" fill="#689aab"/>
        <path id="Path_1974" data-name="Path 1974" d="M651.842,401.9c-.664.491-.961,1.337-1.7,1.756a6.586,6.586,0,0,0-3.025-1.544l0,0c-.806-.139-.83-.863-1.048-1.429-.06-.157.109-.472.21-.374.613.594.639-.458,1.053-.342a.638.638,0,0,1,.388.2c.449.586.935,1.1,1.779.967A4.888,4.888,0,0,1,651.842,401.9Z" transform="translate(-634.82 -367.69)" fill="#72b9d4"/>
        <path id="Path_1975" data-name="Path 1975" d="M643.544,387.6l-.215-.215c-.028-.434-.286-.57-.69-.658-.7-.152-1.789-2.027-1.671-2.778.567-.1.763.363,1.038.693a11.119,11.119,0,0,0,.985,1.2,2.512,2.512,0,0,1,.409.379c.108.145.2.3.308.446.156.217.377.407.317.719A.532.532,0,0,1,643.544,387.6Z" transform="translate(-630.818 -355.106)" fill="#78bfda"/>
        <path id="Path_1976" data-name="Path 1976" d="M635.609,377.332c-.792-.582-1.046-1.65-1.933-2.146a3.425,3.425,0,0,0-1.5-1.289.754.754,0,0,1-.5-.86c.62-.686.951.19,1.432.263a.975.975,0,0,1,.318.319c.6,1.027,1.7,1.683,2.126,2.843C635.674,376.745,635.871,377.025,635.609,377.332Z" transform="translate(-623.527 -346.343)" fill="#7cc3db"/>
        <path id="Path_1977" data-name="Path 1977" d="M626.277,371.6l.443.852v.426c-.045.3.1.847-.507.321-.188-.163-.126-.677-.6-.477l-.752-.953-.136-.362.706-.458C625.94,370.874,626.145,371.19,626.277,371.6Z" transform="translate(-618.071 -344.901)" fill="#5098bd"/>
        <path id="Path_1978" data-name="Path 1978" d="M632.63,282.272l1.634.007c.418-.225.283-.526.113-.832l-.054-.672.038.009c1.229-.626,2.472-.152,3.656.085a9.119,9.119,0,0,1,3.458,1.55,2.618,2.618,0,0,1,1.031,1.172c.141.462-.567.618-.393,1.092l-.222.47c-.337-.014-.1.224-.121.326-.021.128.118.189.053.062,0-.008.042-.043.065-.065.517,1.513,1.021,1.753,2.327,1.107-.232,2.4-.822,3.08-3,3.455-.208.223-.4.6-.683.065a.7.7,0,0,1,.252-.44.639.639,0,0,1,.589-.141,2.525,2.525,0,0,1-1.245-.741,6.428,6.428,0,0,1-1.294-3.226,2.467,2.467,0,0,1-.048-.425c-.059-1.881-.061-1.824-2.008-1.9-1.789-.069-3.548.3-5.331.233a4.063,4.063,0,0,0-2.191.307,9.327,9.327,0,0,1-2.343.526,1.216,1.216,0,0,1-1.222-.8.544.544,0,0,1,.248-.434,1.019,1.019,0,0,1,.324-.12.961.961,0,0,1,.807.21l.8-.012c.39-.29.9-.154,1.311-.373l.823-.077a2.068,2.068,0,0,1,1.135-.17c.359-.025.74.08,1.06-.177Z" transform="translate(-618.832 -273.858)" fill="#78c1dc"/>
        <path id="Path_1979" data-name="Path 1979" d="M629.325,331.757c-.917.208-1.713-.309-2.575-.431-.192-.141-.419-.232-.6-.376-.523-.413-.264-.584.231-.658.492.1,1,.1,1.489.2a6.3,6.3,0,0,0,1.69.109c.351,0,.7-.02,1.051-.013a5.045,5.045,0,0,0,1.747-.123,12.76,12.76,0,0,1,1.777-.11c1.046-.154,2.066-.443,3.116-.583.247.029.552.033.625.309.085.319-.233.407-.45.5A13.671,13.671,0,0,1,629.325,331.757Z" transform="translate(-618.963 -312.576)" fill="#76bed8"/>
        <path id="Path_1980" data-name="Path 1980" d="M642,329.58c1,0,2.01.041,3.01-.018a16.716,16.716,0,0,0,3.964-1.012c.485-.152.949-.37,1.593-.626l-.7-.105c.1-.388.452-.44.751-.565a3.563,3.563,0,0,1,1.605-.211.811.811,0,0,1,.515.388c-3.219,1.84-6.565,3.124-10.374,2.35A1.365,1.365,0,0,1,642,329.58Z" transform="translate(-631.633 -310.399)" fill="#76bbd5"/>
        <path id="Path_1981" data-name="Path 1981" d="M618.492,322.632c-.18.048-.492.053-.194.335.192.181.489.25.592.536l-1.292-.426-.212,0a5.48,5.48,0,0,1-1.078-1.07l-.212-.215c.31-.493-.4-.819-.212-1.293.217-.18,0-.5.228-.681a.362.362,0,0,1,.386.293,3.646,3.646,0,0,0,1.963,2.236A.306.306,0,0,1,618.492,322.632Z" transform="translate(-611.102 -304.752)" fill="#70b1c9"/>
        <path id="Path_1982" data-name="Path 1982" d="M656.691,338.517l-1.978-.022,0,0q-.106-.07-.07-.138c.023-.046.047-.069.071-.069a10.747,10.747,0,0,0,5.138-1.15c.3-.159.6-.25.867.058A14.385,14.385,0,0,1,656.691,338.517Z" transform="translate(-641.556 -318.24)" fill="#6e9bae"/>
        <path id="Path_1983" data-name="Path 1983" d="M688.011,330.978l.269.025a10.106,10.106,0,0,1-2.188,1.063c-.1-.043-.381-.095-.212-.186A4.791,4.791,0,0,1,688.011,330.978Z" transform="translate(-666.054 -313.519)" fill="#729eb2"/>
        <path id="Path_1984" data-name="Path 1984" d="M690.433,325.682a.449.449,0,0,1-.425-.2.937.937,0,0,1,.965-.711l.1.1c.237.268.434.01.645-.049C691.594,325.565,690.786,325.281,690.433,325.682Z" transform="translate(-669.337 -308.648)" fill="#6dbed7"/>
        <path id="Path_1985" data-name="Path 1985" d="M648.717,343.019q0,.1,0,.208c-.57-.089-1.188.209-1.718-.209Z" transform="translate(-635.561 -322.974)" fill="#72a2b5"/>
        <path id="Path_1995" data-name="Path 1995" d="M643.124,367.815h.429a.841.841,0,0,1,.269.327c.363.483.993.55,1.432.915a.463.463,0,0,1,.09.282,2.523,2.523,0,0,0-.221,1.195c0,.39.016.778.011,1.168a1.541,1.541,0,0,1-.21.843.808.808,0,0,1-.818.156,1.477,1.477,0,0,1-.614-.525c-.218-1.333-1.5-1.874-2.154-2.884-.169-.181-.346-.356-.5-.553a.524.524,0,0,1-.1-.56,1.4,1.4,0,0,0,.611-1.665.482.482,0,0,1,.423-.107,1.49,1.49,0,0,1,.591.448A2.463,2.463,0,0,0,643.124,367.815Z" transform="translate(-630.613 -341.335)" fill="#8fd1e4"/>
        <path id="Path_1996" data-name="Path 1996" d="M618.846,356.123a2.332,2.332,0,0,0-1.294-.418c-.346-1.117.039-1.749,1.2-1.932a4.55,4.55,0,0,1,3.52,1.085,1.043,1.043,0,0,1-.734.269c-.208.011-.417,0-.627-.011-.678-.024-1.551-.445-1.608.8,0,.065-.162.119-.244.185Z" transform="translate(-612.342 -331.382)" fill="#8bd0e4"/>
        <path id="Path_1997" data-name="Path 1997" d="M645.352,359.2l-2.363-2.577c.474-.3.745.1,1.071.308a8.736,8.736,0,0,0,.979,1.035,7.394,7.394,0,0,0,1.086.851c.21.116.439.193.646.315.538.377,1.19.115,1.76.313a1.563,1.563,0,0,1,.7.355c-.375.8-1.23.86-1.884,1.233a4.349,4.349,0,0,1-1.131-.441C645.742,360.247,645.637,359.668,645.352,359.2Z" transform="translate(-632.413 -333.573)" fill="#7abbcf"/>
        <path id="Path_1998" data-name="Path 1998" d="M638.513,352.685l-1.057-.444A2.477,2.477,0,0,1,635.944,351l.284-.062a.655.655,0,0,1,.108.019,6.126,6.126,0,0,0,1.872.694.75.75,0,0,1,.242.19.823.823,0,0,1,.169.733Z" transform="translate(-626.881 -329.191)" fill="#76b0c7"/>
        <path id="Path_1999" data-name="Path 1999" d="M635.993,359h.858c-.032.333.3.421.431.644a.545.545,0,0,1,.027.7C636.294,360.516,635.964,360.179,635.993,359Z" transform="translate(-626.918 -335.526)" fill="#8dd3df"/>
        <path id="Path_2000" data-name="Path 2000" d="M653.995,369.022a2.155,2.155,0,0,1,.863,1.281.606.606,0,0,1-.861,0v-1.283Z" transform="translate(-641.056 -343.395)" fill="#7fc7dc"/>
        <path id="Path_2001" data-name="Path 2001" d="M641.757,362.645q0-.322,0-.644c.314.177.7.257.86.644a.3.3,0,0,1,0,.429h-.43Q641.509,363.321,641.757,362.645Z" transform="translate(-631.393 -337.881)" fill="#8dcfe7"/>
        <path id="Path_2002" data-name="Path 2002" d="M648.862,369.392c-.749.178-.8-.344-.858-.857a.467.467,0,0,1,.643,0A1.438,1.438,0,0,1,648.862,369.392Z" transform="translate(-636.351 -342.911)" fill="#85d0e4"/>
        <path id="Path_2003" data-name="Path 2003" d="M647.073,365.86h-.643a.741.741,0,0,1-.43-.43q0-.214,0-.429A2.237,2.237,0,0,1,647.073,365.86Z" transform="translate(-634.778 -340.237)" fill="#89cadd"/>
        <path id="Path_2004" data-name="Path 2004" d="M688.453,333.963c.223.047.494-.059.648.2a3.29,3.29,0,0,1-.958.807,6.719,6.719,0,0,0-.969.778.54.54,0,0,1-.283-.006c-.5-.269-.89,0-1.274.256a2.13,2.13,0,0,1-1.4.415c-.206-.1-.33-.236-.26-.481A35,35,0,0,1,688.453,333.963Z" transform="translate(-664.57 -315.863)" fill="#1f1a19"/>
        <path id="Path_2005" data-name="Path 2005" d="M668.215,345.984l-.215-.426,2.552-.667.15.08c.164.2.16.42-.054.535A2.692,2.692,0,0,1,668.215,345.984Z" transform="translate(-652.054 -324.445)" fill="#232427"/>
        <path id="Path_2006" data-name="Path 2006" d="M680.775,343.159l.206.391c-.3.421-.637.3-.984.076l-.112-.1Z" transform="translate(-661.387 -323.085)" fill="#232427"/>
        <path id="Path_2007" data-name="Path 2007" d="M693.587,340.808h.643l.047.14c-.09.394-.433.523-.733.7a6.67,6.67,0,0,0-2.195,2.072,3.782,3.782,0,0,0-.8,1.225,1.2,1.2,0,0,1-.967.865.349.349,0,0,1-.2-.214.82.82,0,0,1,.005-.3,16.415,16.415,0,0,1,.826-1.589,8.4,8.4,0,0,1,2.585-2.728A.777.777,0,0,1,693.587,340.808Z" transform="translate(-668.838 -321.198)" fill="#82c8df"/>
        <path id="Path_2008" data-name="Path 2008" d="M716.719,336l-.43.237c-.225.093-.391.331-.677.271a.943.943,0,0,1-.461-.217.872.872,0,0,0-1.319-.075c-.606.115-1.166.633-1.834.217l0,0c1.064-1.07,2.51-1.011,3.84-1.242C716.241,335.114,716.506,335.627,716.719,336Z" transform="translate(-686.603 -316.817)" fill="#82c8df"/>
        <path id="Path_2009" data-name="Path 2009" d="M696.308,338.654a9.361,9.361,0,0,0-3.219,3.005.9.9,0,0,1-.251-.771,2.117,2.117,0,0,1,.535-1.159,4.724,4.724,0,0,1,.723-.554c.423-.236.767-.584,1.177-.837a1.289,1.289,0,0,1,.621-.324l.413.431Q696.308,338.549,696.308,338.654Z" transform="translate(-671.559 -319.044)" fill="#69b0d3"/>
        <path id="Path_2010" data-name="Path 2010" d="M738.481,337.129l-1.206,0c-.078-.059-.46-.13-.085-.2a9.549,9.549,0,0,1,1.785-.029C738.838,337.19,738.63,337.075,738.481,337.129Z" transform="translate(-706.261 -318.143)" fill="#78c1e1"/>
        <path id="Path_2015" data-name="Path 2015" d="M716.475,340.259l.654-.163c.256.338.076.671-.014,1l-.627.672-.421.669c-.337.174-.617.444-.973.586-.171.071-.347.132-.514.214-.351.146-.584.48-.952.6a.629.629,0,0,1-.3-.042.691.691,0,0,1-.257-.7,1.308,1.308,0,0,1,.683-.982.488.488,0,0,0,.464-.439,2.359,2.359,0,0,1,.9-.918C715.57,340.591,715.919,340.143,716.475,340.259Z" transform="translate(-687.443 -320.68)" fill="#2c6da0"/>
        <path id="Path_2016" data-name="Path 2016" d="M660.231,403.685c-.811-.411-1.779-.2-2.581-.646-.492.25-.656-.189-.914-.433.006-.281.2-.351.428-.379a3.891,3.891,0,0,1,1.157.406,5.111,5.111,0,0,0,.864.2,1.387,1.387,0,0,1,.4.205c.461.394,1.06-.138,1.526.226Z" transform="translate(-643.208 -369.471)" fill="#6db1cd"/>
        <path id="Path_2017" data-name="Path 2017" d="M644.7,345.874l-.107-.213c-.128-.24-.574-.106-.579-.491a1.116,1.116,0,0,1,1.464.43,3.08,3.08,0,0,0,.9.892.224.224,0,0,1,.231-.075c.2.085.366.234.563.328a3.892,3.892,0,0,0,.615.22,3.348,3.348,0,0,0,.8.153,3.541,3.541,0,0,1,.423.076,2.024,2.024,0,0,0,1.253.1,1.718,1.718,0,0,1-.619.023,5.535,5.535,0,0,1-1.26-.416,1.452,1.452,0,0,1-.228-.188c-.139-.143-.3-.266-.451-.4a1,1,0,0,1-.406-.834c.113-.474.538-.427.862-.462a20.735,20.735,0,0,0,5.863-1.8c.481-.206.717-.242.843.3-.04.348-.36.484-.546.722-.277.389-.444.844-.725,1.232a3.851,3.851,0,0,0-.681,1.24,1,1,0,0,1-.279.336c-.335.209-.616.491-.944.711a8.208,8.208,0,0,1-1.452.679,16.451,16.451,0,0,1-2.258.066,7.529,7.529,0,0,1-.828-.119c-.522-.331-.962-.77-1.471-1.118a3.582,3.582,0,0,1-.38-.63C645.13,346.36,645.016,346.038,644.7,345.874Z" transform="translate(-633.216 -323.022)" fill="#040202"/>
        <path id="Path_2018" data-name="Path 2018" d="M666.109,341.111c-.078-.4-.182-.535-.641-.292a17.112,17.112,0,0,1-6.158,1.869c-.293.032-.469.138-.5.438a.216.216,0,0,1-.269-.018.339.339,0,0,1,.038-.415c.609-.594,1.5-.256,2.166-.653.822-.318,1.908.012,2.448-1l.985-.076a7,7,0,0,0,1.609-.723c.228-.172.83-.775,1.173.048a2.709,2.709,0,0,1-.634.948A.184.184,0,0,1,666.109,341.111Z" transform="translate(-644.583 -320.501)" fill="#0c0808"/>
        <path id="Path_2019" data-name="Path 2019" d="M655.83,352.629q.011.205.022.411c.3.7-.009.935-.683.887a.538.538,0,0,1-.176-.02c-.066-.416.55-.664.2-1.242C655.043,352.42,655.588,352.543,655.83,352.629Z" transform="translate(-641.836 -330.437)" fill="#373636"/>
        <path id="Path_2020" data-name="Path 2020" d="M639.111,351.408c.185.173.5.194.579.491a2.51,2.51,0,0,1-1.919-.877A2.037,2.037,0,0,1,639.111,351.408Z" transform="translate(-628.315 -329.26)" fill="#8d755d"/>
        <path id="Path_2021" data-name="Path 2021" d="M704.02,296.477c.745-.315.338-.965.427-1.471.371.393.232.868.154,1.3C704.551,296.577,704.341,296.853,704.02,296.477Z" transform="translate(-680.34 -285.271)" fill="#0a0c0c"/>
        <path id="Path_2022" data-name="Path 2022" d="M700.145,301.629l-.128.258a.7.7,0,0,1,.006-.842l.125.262Q700.146,301.468,700.145,301.629Z" transform="translate(-677.088 -290.013)" fill="#8ecae1"/>
        <path id="Path_2023" data-name="Path 2023" d="M617.116,291.439l-.215.216a2.153,2.153,0,0,1-.753,1.136,2.383,2.383,0,0,0-.929,1.954,2.97,2.97,0,0,1-.08.489c-.241.649.132,1.417-.39,2.011-.747-1.838-.146-3.459.831-5.006.165-.261.468-.436.464-.8.371.027.559-.314.859-.43C617.061,291.111,617.244,291.2,617.116,291.439Z" transform="translate(-609.972 -282.135)" fill="#75bad2"/>
        <path id="Path_2024" data-name="Path 2024" d="M612.829,294.836l.24.25a15.9,15.9,0,0,1-1.07,2.79q0-.752,0-1.5.01-.325.02-.65C612.446,295.573,612.43,295.015,612.829,294.836Z" transform="translate(-608.074 -285.137)" fill="#68a5bc"/>
        <path id="Path_2025" data-name="Path 2025" d="M615.895,312.177c.122-.712-.253-1.481.248-2.149a1.953,1.953,0,0,1,.015,2.059c-.065.249.008.546-.257.724Q615.9,312.494,615.895,312.177Z" transform="translate(-611.119 -297.067)" fill="#7eb8cd"/>
        <path id="Path_2027" data-name="Path 2027" d="M703.864,335.348l-.42.449c-.409.115-.41-.189-.459-.445.346-.241.62-.6,1.073-.669l.38-.011a.174.174,0,0,1,.272.031C704.636,335.189,704.012,334.957,703.864,335.348Z" transform="translate(-679.528 -316.379)" fill="#c85b0c"/>
        <path id="Path_2028" data-name="Path 2028" d="M710.028,332.547l-.272-.031.295-.595a.108.108,0,0,1,.147-.03c.159.3.431.224.685.2C710.818,332.664,710.346,332.458,710.028,332.547Z" transform="translate(-684.845 -314.224)" fill="#b66219"/>
        <path id="Path_2029" data-name="Path 2029" d="M717.927,331.044l1.3-.034c-.314.7-.821.267-1.264.215A.4.4,0,0,1,717.927,331.044Z" transform="translate(-691.261 -313.545)" fill="#559eb9"/>
        <path id="Path_2033" data-name="Path 2033" d="M700.267,257.208l.791-.005c.165.358.316.733.826.656.026.343.063.724-.458.385a9.116,9.116,0,0,1-.8-.652C700.46,257.51,700.3,257.42,700.267,257.208Z" transform="translate(-677.393 -255.584)" fill="#d96603"/>
        <path id="Path_2034" data-name="Path 2034" d="M701.36,267.822a.415.415,0,0,1-.413-.245c.232-.346.461-.573.666.018Z" transform="translate(-677.927 -263.459)" fill="#693914"/>
        <path id="Path_2035" data-name="Path 2035" d="M754.862,363.414a1.16,1.16,0,0,1-.86-.429A.766.766,0,0,1,754.862,363.414Z" transform="translate(-719.591 -338.652)" fill="#1c1c1c"/>
        <path id="Path_2036" data-name="Path 2036" d="M628.676,359.656a.393.393,0,0,0,.43.43c.607,1.124.585,1.184-.634,1.716a1.247,1.247,0,0,1-.617-.3,7.719,7.719,0,0,0-.974-.759,1.038,1.038,0,0,1-.362-.419l-1.484-.712c.08-.183.261-.389.224-.543-.174-.719.03-1,.763-.821a7.056,7.056,0,0,0,1.368.12C627.765,358.849,627.669,359.8,628.676,359.656Z" transform="translate(-618.312 -334.893)" fill="#94d4e6"/>
        <path id="Path_2037" data-name="Path 2037" d="M626.468,369.141l-.845-.651-.634-.445c-.048-.19-.015-.3.212-.207l1.049.237a4.7,4.7,0,0,1,.763.334c.277.261.644.421.855.757a.358.358,0,0,1-.1.4C627.251,369.683,627.072,368.758,626.468,369.141Z" transform="translate(-618.262 -342.439)" fill="#7ec7df"/>
        <path id="Path_2038" data-name="Path 2038" d="M631.588,368.742a.722.722,0,0,1-.657-.43l.218-.2.437.207A.284.284,0,0,1,631.588,368.742Z" transform="translate(-622.944 -342.678)" fill="#56a1c3"/>
        <path id="Path_2039" data-name="Path 2039" d="M623.195,367.21l-.212.208-.567-.286C622.769,366.931,623,366.983,623.195,367.21Z" transform="translate(-616.257 -341.812)" fill="#74bbd4"/>
        <path id="Path_2040" data-name="Path 2040" d="M626.22,289.818l-.214-.426c.323.057.4-.846.867-.223.136.407-.3.424-.438.648Z" transform="translate(-619.076 -280.514)" fill="#77b5cd"/>
        <path id="Path_2041" data-name="Path 2041" d="M628,290.616c-.033-.337.3-.423.438-.648h.1l.3.241.039.4Z" transform="translate(-620.637 -281.314)" fill="#7ab9cc"/>
        <path id="Path_2042" data-name="Path 2042" d="M674.2,281.8A11.289,11.289,0,0,0,666.06,279l.464-.614.814-.015c.575-.429,1.145.092,1.719.009l.206,0c.3.307.8.087,1.081.421h0l2.789,1.289,1.049.861Q674.193,281.374,674.2,281.8Z" transform="translate(-650.531 -272.069)" fill="#6fb0c8"/>
        <path id="Path_2043" data-name="Path 2043" d="M617.978,330.012c.542.173.8.635,1.079,1.07A1.277,1.277,0,0,1,617.978,330.012Z" transform="translate(-612.772 -312.761)" fill="#69abc3"/>
        <path id="Path_2044" data-name="Path 2044" d="M673.73,277.473c-.575.466-1.145-.083-1.719-.009q.019-.193.039-.385A2.048,2.048,0,0,1,673.73,277.473Z" transform="translate(-655.205 -271.167)" fill="#67a1b9"/>
        <path id="Path_2045" data-name="Path 2045" d="M682.059,279.445c-.417,0-.857.069-1.081-.421l1.281,0Z" transform="translate(-662.246 -272.72)" fill="#67a1b9"/>
        <path id="Path_2046" data-name="Path 2046" d="M693.86,367.333c-.237,1.137-1.1,1.987-1.411,3.1-.1.362-.4.7-.294,1.1.214.8-.86.54-.869,1.125a.968.968,0,0,1-.8.238c-.541-.12-.656-.366-.228-.772a3.356,3.356,0,0,0,.962-1.928c0-.183.208-.27.359-.361a1.657,1.657,0,0,0,.636-1.175,2.15,2.15,0,0,1,.774-1.464.864.864,0,0,1,.625-.068A.43.43,0,0,1,693.86,367.333Z" transform="translate(-669.328 -341.884)" fill="#82c9df"/>
        <path id="Path_2047" data-name="Path 2047" d="M681.521,389.291c.13.143-.725.288,0,.429a.952.952,0,0,1,0,1.287h-.214c-.834-.354-1.229.61-1.934.645-.215.057-.43.339-.644,0a.192.192,0,0,1-.072-.161c.005-.061.015-.091.029-.092a1.633,1.633,0,0,1,.463-.338,2.57,2.57,0,0,0,.777-.587c.065-.12.129-.24.2-.359a2.42,2.42,0,0,1,.246-.333c.26-.274.409-.643.729-.869C681.485,388.762,681.751,388.748,681.521,389.291Z" transform="translate(-660.422 -358.945)" fill="#85cbdd"/>
        <path id="Path_2048" data-name="Path 2048" d="M707.1,356.961a1,1,0,0,0-.2-.046,3.59,3.59,0,0,1,.606-2.224c.254-.309.353-.79.878-.8.012.27-.009.554.293.7a1.088,1.088,0,0,1-.721,1.227C707.469,356.047,707.512,356.672,707.1,356.961Z" transform="translate(-682.571 -331.511)" fill="#2c6f9e"/>
        <path id="Path_2049" data-name="Path 2049" d="M711.968,358.142l.721-1.227c.05-.009.1-.021.147-.033.18-.094.256.024.324.158a.777.777,0,0,1,.008.286.945.945,0,0,1-.349.6c-.374.467-.122,1.017-.2,1.523-.354-.179-.036-.858-.636-.854Q711.973,358.371,711.968,358.142Z" transform="translate(-686.582 -333.835)" fill="#75bbdb"/>
        <path id="Path_2050" data-name="Path 2050" d="M692,394.288q0-.644,0-1.287h.858C692.865,393.626,692.71,394.143,692,394.288Z" transform="translate(-670.899 -362.225)" fill="#7ec7e4"/>
        <path id="Path_2051" data-name="Path 2051" d="M724.344,367.686c-.013.068-.026.136-.038.2a.774.774,0,0,1-.8.4h0a.452.452,0,0,1,0-.643l.418-.643C724.268,367.1,724.218,367.449,724.344,367.686Z" transform="translate(-695.537 -341.81)" fill="#5399c0"/>
        <path id="Path_2052" data-name="Path 2052" d="M715.926,353.114c.012-.232,0-.472.227-.626a8.6,8.6,0,0,1,1.077-1.282c.374-.11.566-.683,1.084-.426a9.485,9.485,0,0,0-.261,2.992c-.423-.246.125-.854-.4-1.063-.6.229-.922,1.014-1.715.857Z" transform="translate(-689.69 -329.018)" fill="#4286b1"/>
        <path id="Path_2053" data-name="Path 2053" d="M715.994,360.236c.334-.323.905-.321,1.079-.9.079-.264.42-.036.636.047.058.691-.522.989-.93,1.309C716.435,360.958,715.947,360.928,715.994,360.236Z" transform="translate(-689.741 -335.689)" fill="#478cb6"/>
        <path id="Path_2054" data-name="Path 2054" d="M722.431,369.218v.644c-.575-.07-.388-.521-.429-.857A.438.438,0,0,1,722.431,369.218Z" transform="translate(-694.461 -343.381)" fill="#5797b5"/>
        <path id="Path_2055" data-name="Path 2055" d="M726.365,366.913l-.42-.683c.013-.07.027-.141.041-.211A.759.759,0,0,1,726.365,366.913Z" transform="translate(-697.558 -341.037)" fill="#4b5558"/>
        <path id="Path_2056" data-name="Path 2056" d="M664.658,398.956c0,.065,0,.131,0,.2a7.317,7.317,0,0,0-1.756.412c-.332.11-.23.257-.176.449l-.427-.008a1.952,1.952,0,0,0-.95-.528c-.38-.221-.707-.474-.586-.991.763-.4,1.435.412,2.188.161C663.528,398.7,664.159,398.462,664.658,398.956Z" transform="translate(-646.349 -366.445)" fill="#87cce7"/>
        <path id="Path_2070" data-name="Path 2070" d="M647.109,289.419,645.8,289.4c.324-.607.878-.3,1.345-.337C647.257,289.2,647.262,289.316,647.109,289.419Z" transform="translate(-634.624 -280.57)" fill="#9e9f90"/>
        <path id="Path_2071" data-name="Path 2071" d="M637.174,291.089a1.426,1.426,0,0,1-1.311.373C636.164,290.858,636.72,291.151,637.174,291.089Z" transform="translate(-626.818 -282.181)" fill="#77b5cd"/>
        <path id="Path_2072" data-name="Path 2072" d="M651.884,289.548l.04-.355.851-.009C652.651,289.731,652.226,289.538,651.884,289.548Z" transform="translate(-639.398 -280.699)" fill="#88b3bf"/>
        <path id="Path_2073" data-name="Path 2073" d="M665.718,285.008c.421-.009.281.343.314.541.055.329-.223.279-.427.29Z" transform="translate(-650.173 -277.42)" fill="#75c4e7"/>
        <path id="Path_2074" data-name="Path 2074" d="M653.859,400.771c.3.121.484.461.857.431-.966.271-1.354-.381-1.716-1.075a.445.445,0,0,1,.43-.216c.177-.073.249.038.307.174C653.827,400.3,653.727,400.558,653.859,400.771Z" transform="translate(-640.275 -367.634)" fill="#74bbd8"/>
        <path id="Path_2075" data-name="Path 2075" d="M650.606,408.032l-.106-.5c.064-.013.163-.059.187-.034.191.2.12.379-.079.531Z" transform="translate(-638.311 -373.608)" fill="#74bbd8"/>
        <path id="Path_2076" data-name="Path 2076" d="M640.076,376.985c.674.672,1.342,1.349,2.024,2.012.319.31.166.653.12.995.2.355.358.7-.215.86a.444.444,0,0,1-.215-.43c-.26-.331-.369-.752-.644-1.074-.552-1.057-1.671-1.679-2.147-2.795a.33.33,0,0,1,.393-.089C639.628,376.628,639.788,376.89,640.076,376.985Z" transform="translate(-629.281 -349.216)" fill="#87cce2"/>
        <path id="Path_2077" data-name="Path 2077" d="M653,393.862c.314-.226.185-.563.215-.86a.392.392,0,0,1,.429.429c.277.244.6.423.892.649a.631.631,0,0,1,.181.21,2.314,2.314,0,0,0,.645.86.3.3,0,0,1,0,.429l-1.075-.429c-.2-.17-.558-.093-.641-.432l-.216-.214Z" transform="translate(-640.274 -362.226)" fill="#82cbdf"/>
        <path id="Path_2078" data-name="Path 2078" d="M649,390a1.327,1.327,0,0,1,.643,1.074l-.428-.216Q649.109,390.429,649,390Z" transform="translate(-637.134 -359.869)" fill="#82cbdf"/>
        <path id="Path_2079" data-name="Path 2079" d="M638.615,373.892l-.424-.009-.212-.212q0-.211-.009-.422c.012-.132.135-.153.217-.214l.443.421.219.429A.135.135,0,0,1,638.615,373.892Z" transform="translate(-628.471 -346.546)" fill="#67b5d0"/>
        <path id="Path_2080" data-name="Path 2080" d="M646.993,292.107c2,.026,3.985-.34,5.994-.247,1.768.082,1.77.033,1.74,1.784-.006.322-.009.643-.014.965a2.189,2.189,0,0,1,.038,1.1c-.834-.09-.483-.766-.57-1.2-.118-.6.2-1.305-.493-1.734a10.806,10.806,0,0,0-3.927-.033,12.332,12.332,0,0,1-1.994.078,3.8,3.8,0,0,0-1.2.1,1.521,1.521,0,0,1-.525.027c-.247-.056-.447-.161-.46-.454C645.922,291.877,646.576,292.427,646.993,292.107Z" transform="translate(-634.451 -282.788)" fill="#676e71"/>
        <path id="Path_2081" data-name="Path 2081" d="M625.494,294.452a.5.5,0,0,0,.466.261c-.143.567-.647.429-1.028.516-.515.118-1.044.166-1.557.292a3.3,3.3,0,0,0-.734.2,4.44,4.44,0,0,1-.4.2,2.662,2.662,0,0,1-.438.134c-.645.082-1.162.8-1.908.386.134-.923.981-1,1.606-1.316.238-.121.559-.067.819-.2a12.124,12.124,0,0,0,2.331-.475A.881.881,0,0,1,625.494,294.452Z" transform="translate(-614.277 -284.749)" fill="#646a6b"/>
        <path id="Path_2082" data-name="Path 2082" d="M620.057,294.664c-.737.584-1.8.662-2.357,1.528-.031.438-.184.779-.676.852-.142-1.507,1.15-2.108,1.919-3.039C619.261,294.315,619.52,294.723,620.057,294.664Z" transform="translate(-612.015 -284.484)" fill="#78bed7"/>
        <path id="Path_2083" data-name="Path 2083" d="M687.283,305.884q.017-.58.035-1.161a7.887,7.887,0,0,0,1.247,3.07.644.644,0,0,1-.679.144A1.552,1.552,0,0,1,687.283,305.884Z" transform="translate(-667.054 -292.901)" fill="#637076"/>
        <path id="Path_2084" data-name="Path 2084" d="M691.029,318.984l.614.008,1.04.689-.81.646,0-.091C691.487,319.887,690.946,319.645,691.029,318.984Z" transform="translate(-670.132 -304.101)" fill="#646b70"/>
        <path id="Path_2085" data-name="Path 2085" d="M642.886,293.35l-.844,0c.635-.624,1.431-.345,2.17-.386C643.838,293.329,643.261,292.989,642.886,293.35Z" transform="translate(-631.669 -283.648)" fill="#78bed7"/>
        <path id="Path_2086" data-name="Path 2086" d="M704.214,311.134a1.593,1.593,0,0,1,1.054-.008C704.963,311.32,704.68,311.265,704.214,311.134Z" transform="translate(-680.492 -297.863)" fill="#81cae5"/>
        <path id="Path_2087" data-name="Path 2087" d="M646.751,311.966l-1.891.074c-.576.192-1.188-.054-1.763.148l-1.056-.006c-.2-.082-.356-.192-.23-.445a3.92,3.92,0,0,0,1.2-1.019,3.753,3.753,0,0,0,.078-3.155,1.412,1.412,0,0,1-.068-.929c.3-.267.462-.757,1.01-.615a.992.992,0,0,1,.193.7,5.11,5.11,0,0,0,2.241,4.42C646.642,311.386,647.014,311.568,646.751,311.966Z" transform="translate(-631.451 -293.9)" fill="#060a0b"/>
        <path id="Path_2088" data-name="Path 2088" d="M656.96,302.946c.024-.318-.312-.382-.426-.6a1.062,1.062,0,0,1,.777-.279c2.077-.07,2.848-1.157,2.484-3.509a8.05,8.05,0,0,0-.855-1.94,2.61,2.61,0,0,0-2.612-1.321,2.46,2.46,0,0,1-.459-.077c-.344-.13-.742-.093-1.053-.33q-.126-.16.058-.248l2.074-.055a1.025,1.025,0,0,1,.663-.04c2.439.638,3.907,3.622,3.1,6.317-.107.36-.383.71-.045,1.087l-.786.354Z" transform="translate(-641.661 -284.88)" fill="#0b1114"/>
        <path id="Path_2089" data-name="Path 2089" d="M628.863,309.976l.222.377a3.192,3.192,0,0,1-1.759-.155.382.382,0,0,1,.373-.119,1.722,1.722,0,0,1-.852-.191,6.06,6.06,0,0,1-1.269-1.383c-.206-.322-.456-.641-.21-1.056.313-.212.468.075.671.21.366.389.693.816,1.1,1.17A1.378,1.378,0,0,0,629.59,308a3.909,3.909,0,0,0-1-3.165c-.218-.278-.569-.442-.69-.805a.526.526,0,0,1,.063-.3c.278-.151.519-.015.763.1a2.839,2.839,0,0,1,1.423,1.875,4.292,4.292,0,0,1,.179,2.871A2.789,2.789,0,0,1,628.863,309.976Z" transform="translate(-618.496 -292.07)" fill="#314047"/>
        <path id="Path_2090" data-name="Path 2090" d="M628.843,330.873l.935.331-.536.118c-.483-.067-1.01.123-1.44-.247a1.259,1.259,0,0,1-.1-.169.639.639,0,0,1,.474-.341C628.452,330.557,628.633,330.746,628.843,330.873Z" transform="translate(-620.411 -313.195)" fill="#071118"/>
        <path id="Path_2091" data-name="Path 2091" d="M647.969,334.115a3.2,3.2,0,0,1,1.763-.148A3.58,3.58,0,0,1,647.969,334.115Z" transform="translate(-636.324 -315.826)" fill="#314047"/>
        <path id="Path_2092" data-name="Path 2092" d="M671.094,301.862c-.408-.018-.657-.061-.434-.614.93-2.3.249-4.275-1.338-6.04-.353-.393-.986-.184-1.285-.653a11.432,11.432,0,0,1,3.434-.049c.549-.012.7.265.682.791a5.51,5.51,0,0,0,.159,2.48,2.93,2.93,0,0,0,.669,1.9c.1.537.854.638.84,1.253a2.811,2.811,0,0,0-1.066.7C672.162,301.431,671.662,301.89,671.094,301.862Z" transform="translate(-652.083 -284.794)" fill="#020202"/>
        <path id="Path_2093" data-name="Path 2093" d="M619.839,307.5c-.109.191-.3.206-.49.242-1.44-.32-1.874-1.483-2.256-2.691q-.007-1.03-.015-2.06c0-.134-.009-.267-.014-.4.373-.167.4-.605.676-.852.708,0,1.167-.694,1.882-.67.184.2.081.387-.047.565a4.208,4.208,0,0,0-.044,5.326C619.652,307.133,619.821,307.273,619.839,307.5Z" transform="translate(-612.054 -290.033)" fill="#050809"/>
        <path id="Path_2097" data-name="Path 2097" d="M660.028,381.155q0-.64,0-1.28c.162-.35.246-.729.406-1.079l0-.216.122-.088a.422.422,0,0,1,.415.1,3.65,3.65,0,0,1,.461.918c.081.43-.394.491-.512.782.208.306.623.145.851.389a.526.526,0,0,1,.094.423,2.772,2.772,0,0,1-.711.943c-.335.106-.532-.169-.786-.287S660.182,381.335,660.028,381.155Z" transform="translate(-645.794 -350.819)" fill="#d6eaeb"/>
        <path id="Path_2098" data-name="Path 2098" d="M654,374.931l.861,0a1.065,1.065,0,0,1,1.068.428c.139.24-.094.31-.2.438l-.032-.014A2.009,2.009,0,0,1,654,374.931Z" transform="translate(-641.061 -348.021)" fill="#88cbe2"/>
        <path id="Path_2099" data-name="Path 2099" d="M659.65,390.956l.406.443c.177.3.655.476.38.954a.755.755,0,0,1-.815-.049.379.379,0,0,1,.022-.48Z" transform="translate(-645.415 -360.62)" fill="#9ad3dd"/>
        <path id="Path_2100" data-name="Path 2100" d="M656.858,395q0,.214,0,.428a.291.291,0,0,1,0,.429A1.118,1.118,0,0,1,656,395Z" transform="translate(-642.63 -363.796)" fill="#89cfe9"/>
        <path id="Path_2101" data-name="Path 2101" d="M660.4,379.968c.194.484-.175.756-.406,1.079C659.976,380.629,659.94,380.205,660.4,379.968Z" transform="translate(-645.76 -351.991)" fill="#cbe5eb"/>
        <path id="Path_2102" data-name="Path 2102" d="M640.976,377l.234-.008.418.431C641.177,377.64,641.173,377.171,640.976,377Z" transform="translate(-630.832 -349.652)" fill="#77bdd2"/>
        <path id="Path_2103" data-name="Path 2103" d="M662.053,372.679l.2-.438a7.229,7.229,0,0,1,1.957-1.061.592.592,0,0,1,.4-.223,1.585,1.585,0,0,1,.606.043,6.709,6.709,0,0,1,.834.259.391.391,0,0,1,.162.223.749.749,0,0,1-.52.874c-.266.066-.527-.073-.793-.017-.626-.086-.355.731-.815.81-.455-.186-.118-.6-.248-.9.031-.117-.045.033-.041.045.134.415-.143.533-.468.613a.9.9,0,0,1-.793-.209Z" transform="translate(-647.384 -344.904)" fill="#cbe5eb"/>
        <path id="Path_2104" data-name="Path 2104" d="M661.866,368.623c-.635-.185-1.432.415-1.936-.4.23-.324.579-.229.894-.256.575.06,1.176-.148,1.725.175C662.724,368.872,662.284,368.732,661.866,368.623Z" transform="translate(-645.717 -342.557)" fill="#859fa1"/>
        <path id="Path_2105" data-name="Path 2105" d="M651.7,361.818c.471.283,1.034.45,1.266,1.027.086.254,0,.363-.267.31l-1.047-.872C651.536,362.114,651.513,361.955,651.7,361.818Z" transform="translate(-639.146 -337.738)" fill="#c96f21"/>
        <path id="Path_2106" data-name="Path 2106" d="M648.836,359.128l-.049.465a1.609,1.609,0,0,1-.875-1.051l.029-.029a.4.4,0,0,1,.566-.006Z" transform="translate(-636.279 -335.047)" fill="#76b0c7"/>
        <path id="Path_2107" data-name="Path 2107" d="M656.863,366.913l.267-.31.844.126c.126.141.541-.033.417.382l-.87.05C657.3,367.076,657.005,367.2,656.863,366.913Z" transform="translate(-643.308 -341.495)" fill="#dd6711"/>
        <path id="Path_2108" data-name="Path 2108" d="M668.947,369.127c.286-.024.615.021.658-.4a.342.342,0,0,1,.47-.063.482.482,0,0,1-.049.644l-.4.032C669.387,369.3,669.122,369.361,668.947,369.127Z" transform="translate(-652.798 -343.062)" fill="#749eb1"/>
        <path id="Path_2109" data-name="Path 2109" d="M647.954,356.7l-.566.006-.18-.613C647.628,356.088,647.825,356.353,647.954,356.7Z" transform="translate(-635.725 -333.244)" fill="#b76c34"/>
        <path id="Path_2110" data-name="Path 2110" d="M699.506,338.031l.458.445c-.48.216-.748.755-1.3.856a.3.3,0,0,1-.044-.414C698.7,338.408,699.092,338.208,699.506,338.031Z" transform="translate(-676.048 -319.058)" fill="#b76729"/>
        <path id="Path_2111" data-name="Path 2111" d="M695.608,341.9l.044.414a.613.613,0,0,1-.645.416.182.182,0,0,1-.285-.056c.057-.424.209-.771.693-.845A.638.638,0,0,0,695.608,341.9Z" transform="translate(-673.039 -322.045)" fill="#d16409"/>
        <path id="Path_2112" data-name="Path 2112" d="M700.187,342.2l-.661.879c-.532-.1-.614.47-.959.65-.385.176-.724.437-1.111.612-1.142-.016-1.142-.016-.918-1.633a1.68,1.68,0,0,1,.223-.484,5.083,5.083,0,0,1,2.2-2.167c.292-.18.665-.254.812-.622L701.7,339c.631.155.336.679.419,1.053l-.847.882a.779.779,0,0,1-.432.425A1.842,1.842,0,0,0,700.187,342.2Z" transform="translate(-674.373 -319.819)" fill="#93d3e5"/>
        <path id="Path_2113" data-name="Path 2113" d="M684.583,354v.429a12.675,12.675,0,0,1-1.386,3.233c-.142.212-.251.414-.505.489-.153.054-.375-.239-.481.129a.637.637,0,0,1-.668.426.6.6,0,0,1-.6-.422c-.008-.065-.019-.13-.031-.194.623-.676,1.384-1.213,1.952-1.943a2.032,2.032,0,0,0,.982-1.3A1.355,1.355,0,0,1,684.583,354Z" transform="translate(-662.196 -331.598)" fill="#84cadf"/>
        <path id="Path_2114" data-name="Path 2114" d="M688.19,350.523q.011.449.021.9a4.425,4.425,0,0,1-.861,1.5.719.719,0,0,1-.719-.444c-.056-.543.389-.881.546-1.338a2,2,0,0,1,.588-.658A.425.425,0,0,1,688.19,350.523Z" transform="translate(-666.681 -328.807)" fill="#75b2c5"/>
        <path id="Path_2115" data-name="Path 2115" d="M679.734,362.857a2.915,2.915,0,0,1-1.952,1.943c-.3-.035-.621.053-.857-.217a11.515,11.515,0,0,0,1.557-1.168c.117-.155.222-.317.351-.463.268-.193.466-.589.9-.313Z" transform="translate(-659.063 -338.308)" fill="#7cbfd5"/>
        <path id="Path_2116" data-name="Path 2116" d="M686.034,360.5l-.854.433a.62.62,0,0,1-.221-.416.921.921,0,0,1,.137-.614.212.212,0,0,1,.274-.055l.665.438C686.035,360.356,686.035,360.427,686.034,360.5Z" transform="translate(-665.366 -336.167)" fill="#6bbbde"/>
        <path id="Path_2117" data-name="Path 2117" d="M721.423,339.1c-.5-.207.008-.816-.419-1.052.74-.6,1.205-.025,1.706.4C722.275,338.654,721.938,339.054,721.423,339.1Z" transform="translate(-693.678 -318.869)" fill="#88cee6"/>
        <path id="Path_2118" data-name="Path 2118" d="M691.591,346.762l-.4.071a.515.515,0,0,1-.209-.625c.066-.343.333-.46.622-.552a.875.875,0,0,0,.158.025l.285.056C692.035,346.14,691.552,346.334,691.591,346.762Z" transform="translate(-670.083 -325.046)" fill="#ba6e33"/>
        <path id="Path_2128" data-name="Path 2128" d="M718.062,353c-.122.634-.688.993-.953,1.538-.027-.018-.069-.03-.078-.054a1.577,1.577,0,0,1-.046-.2c0-.066.007-.132.012-.2a1.033,1.033,0,0,1,.614-.828A.455.455,0,0,1,718.062,353Z" transform="translate(-690.521 -330.815)" fill="#347ca6"/>
        <path id="Path_2129" data-name="Path 2129" d="M716.844,354.154l-.614.827-.221-.224C716.21,354.45,716.361,354.073,716.844,354.154Z" transform="translate(-689.754 -331.71)" fill="#6bb2d6"/>
        <path id="Path_2130" data-name="Path 2130" d="M717,348.437a.728.728,0,0,1,.432-.425c.042.162.171.38.11.474C717.381,348.732,717.184,348.474,717,348.437Z" transform="translate(-690.533 -326.896)" fill="#2e79af"/>
        <path id="Path_2131" data-name="Path 2131" d="M664,403.412q0-.215,0-.429c.457-.017.922-.045.861.637C664.563,403.6,664.229,403.723,664,403.412Z" transform="translate(-648.913 -370.06)" fill="#84c6d8"/>
        <path id="Path_2132" data-name="Path 2132" d="M655.707,400.993l.64.432a.438.438,0,0,0-.427.214C655.732,401.462,655.5,401.3,655.707,400.993Z" transform="translate(-642.335 -368.502)" fill="#72b9d4"/>
        <path id="Path_2133" data-name="Path 2133" d="M664.616,367.151l-.434.009-1.724-.048-.417-.382,2.5-.067c.378-.131.611-.059.562.4A.339.339,0,0,1,664.616,367.151Z" transform="translate(-647.374 -341.497)" fill="#d06313"/>
        <path id="Path_2134" data-name="Path 2134" d="M674.175,364.857c-.03-.295-.242-.362-.486-.39l1.327-.634a.428.428,0,0,1,.554.289A.953.953,0,0,1,674.175,364.857Z" transform="translate(-656.521 -339.302)" fill="#b66f39"/>
        <path id="Path_2135" data-name="Path 2135" d="M685.023,354.923a.383.383,0,0,0-.174.068.3.3,0,0,1-.331-.062c-.071-.591.331-.931.688-1.3a.244.244,0,0,1,.386.022C685.635,354.183,685.132,354.464,685.023,354.923Z" transform="translate(-665.019 -331.244)" fill="#cc620f"/>
        <path id="Path_2136" data-name="Path 2136" d="M655.833,355.826c.4-.161.761-.356.683-.887.069.01.139.017.208.022l.479.6c-.107.476-.478.589-.889.649A.73.73,0,0,1,655.833,355.826Z" transform="translate(-642.499 -332.336)" fill="#414141"/>
        <path id="Path_2137" data-name="Path 2137" d="M688.141,349.477l-.386-.022a3.648,3.648,0,0,1,.716-1.227l.21.625C688.723,349.253,688.329,349.276,688.141,349.477Z" transform="translate(-667.567 -327.066)" fill="#c16726"/>
        <path id="Path_2138" data-name="Path 2138" d="M663.011,359.9c.419.163.914.118,1.269.46-.06.529-.407.251-.661.235l-.4-.045C662.968,360.4,662.384,360.341,663.011,359.9Z" transform="translate(-647.916 -336.236)" fill="#666562"/>
        <path id="Path_2139" data-name="Path 2139" d="M658.076,358.48l.889-.649c.152.041.3.093.335.272a1.179,1.179,0,0,1-.591.613Z" transform="translate(-644.261 -334.607)" fill="#4b4c4b"/>
        <path id="Path_2140" data-name="Path 2140" d="M666.868,362.162c.23-.053.493-.01.661-.235.3-.01.613-.125.954.14A1.615,1.615,0,0,1,666.868,362.162Z" transform="translate(-651.165 -337.797)" fill="#414740"/>
        <path id="Path_2141" data-name="Path 2141" d="M680.272,361.565l-.4-.216a1.164,1.164,0,0,1,.908-.7.558.558,0,0,1,.084.642A.582.582,0,0,1,680.272,361.565Z" transform="translate(-661.375 -336.817)" fill="#e2600c"/>
        <path id="Path_2142" data-name="Path 2142" d="M661.023,359.71a1.36,1.36,0,0,1,.591-.613.334.334,0,0,1,.056.174c-.232.311.042.463.205.65A1.175,1.175,0,0,1,661.023,359.71Z" transform="translate(-646.575 -335.601)" fill="#57575a"/>
        <path id="Path_2143" data-name="Path 2143" d="M683.829,360.741q.026-.311.053-.623a.187.187,0,0,1,.1-.144l.331.062q-.006.313-.013.626c-.1.094-.181.222-.334.249C683.852,360.906,683.8,360.852,683.829,360.741Z" transform="translate(-664.479 -336.29)" fill="#7ea4a4"/>
        <path id="Path_2144" data-name="Path 2144" d="M635.054,369.923l-.217.215c-.3-.189-.689-.267-.854-.639q0-.213,0-.427A3.442,3.442,0,0,1,635.054,369.923Z" transform="translate(-625.339 -343.434)" fill="#5aaacd"/>
        <path id="Path_2145" data-name="Path 2145" d="M689.577,374.91c.013-.369-.181-.335-.419-.216a.854.854,0,0,1-.184-.941,10.084,10.084,0,0,0,.484-.957c.494-.507-.182-.969-.06-1.462a1.5,1.5,0,0,1,1.407-.824c.473.316.929.66.252,1.194-.4.32.127.754-.19,1.058-.288.589-.6,1.169-.853,1.772C689.916,374.759,689.809,374.885,689.577,374.91Z" transform="translate(-668.478 -344.564)" fill="#8dd0e5"/>
        <path id="Path_2146" data-name="Path 2146" d="M696.471,369.964c-.071-.473-1.016-1.016.2-1.391.392-.121-.328-.438-.2-.755a.951.951,0,0,1,.291-.275c.334-.124.347-.861.939-.494l.059.125a11.784,11.784,0,0,0-.857,2.417A.476.476,0,0,1,696.471,369.964Z" transform="translate(-674.084 -341.765)" fill="#87cde2"/>
        <path id="Path_2147" data-name="Path 2147" d="M703.705,358.061c.358-.125.5-.772,1.049-.434l-.823,2.148-.655,0h0C702.777,359.045,703.336,358.577,703.705,358.061Z" transform="translate(-679.601 -334.371)" fill="#87cde2"/>
        <path id="Path_2148" data-name="Path 2148" d="M667.638,376.2c.205-.321.463,0,.69-.057a.184.184,0,0,1,.252-.03.752.752,0,0,1-.052.563,1.7,1.7,0,0,0-.145.657,1.192,1.192,0,0,0,.282.564,1.141,1.141,0,0,1,.088.256,4,4,0,0,1,.049.551c.013.139.026.277.048.415.143.547.733.546,1.059.867l-.116.447a7.514,7.514,0,0,0-1.009.535.407.407,0,0,1-.276-.05c-.135-.114-.133-.3-.224-.437-.085.135-.023.325-.161.442-.415.171-.634-.125-.875-.363-.568-.524-.349.433-.676.362a2.69,2.69,0,0,1-1.09-.453.437.437,0,0,1-.027-.429c.208-.28.732-.379.512-.9l0-.407a.681.681,0,0,1-.206-.407.923.923,0,0,1,.08-.441.639.639,0,0,0,.025-.879.442.442,0,0,1,.047-.412c.475.038.4-.442.607-.681.2.361-.07.806.276,1.1A1.655,1.655,0,0,0,667.638,376.2Z" transform="translate(-650.02 -348.806)" fill="#d6ecf1"/>
        <path id="Path_2149" data-name="Path 2149" d="M679.283,374.647,679,374.61l.442-.654.633.224c.252.214.644.217.821.545.161.243.292.5.43.762.11.276.287.549.044.842q0,.536,0,1.071c-.186.349-.3.746-.688.952a.487.487,0,0,1-.47-.486.919.919,0,0,1,.213-.383,1.09,1.09,0,0,0,.236-.926c-.01-.5-.433-.738-.69-1.078C679.776,375.174,679.476,374.954,679.283,374.647Z" transform="translate(-660.691 -347.27)" fill="#cfecf3"/>
        <path id="Path_2150" data-name="Path 2150" d="M667.423,396.943c.323.029.419.494.8.414a.249.249,0,0,1,.372,0l.241.014q.112.071.076.144c-.024.049-.048.074-.073.074l-.431.228-1.918-.026c-.311-.219-.833-.079-.98-.578a.413.413,0,0,1,.105-.273,1.227,1.227,0,0,1,1.111.413C666.93,397.171,667.1,396.931,667.423,396.943Z" transform="translate(-650.097 -365.307)" fill="#d4ebf5"/>
        <path id="Path_2151" data-name="Path 2151" d="M681.117,390.494l.439.5c-.035.033-.069.067-.1.1-.617.031-1.174-.041-1.342-.782C680.528,389.927,680.869,389.957,681.117,390.494Z" transform="translate(-661.565 -359.91)" fill="#e39344"/>
        <path id="Path_2152" data-name="Path 2152" d="M681,397.572q0-.109,0-.218a1.049,1.049,0,0,1,1.037-.437A1.7,1.7,0,0,1,681,397.572Z" transform="translate(-662.26 -365.288)" fill="#cde8f3"/>
        <path id="Path_2153" data-name="Path 2153" d="M661.288,397.079l.878.632c-.719.182-1.273-.4-1.948-.421l-.214,0q0-.215,0-.429h.86C661.11,396.732,661.173,396.955,661.288,397.079Z" transform="translate(-645.775 -365.225)" fill="#92d2e2"/>
        <path id="Path_2164" data-name="Path 2164" d="M639.278,295.553c.364.092.791-.125,1.1.227-.249.391-.789.5-.94.989-.269.306-.175.906-.766.952-.3.2-.385.688-.866.643-.441.068-.471-.332-.648-.565-.221-.654-.807-.834-1.364-1.059-.289-.117-.761.029-.773-.511.891-.424,1.909-.292,2.817-.642l.4-.034A1.416,1.416,0,0,1,639.278,295.553Z" transform="translate(-626.157 -285.624)" fill="#030405"/>
        <path id="Path_2165" data-name="Path 2165" d="M669.036,294.055l-3.434.048-.666-.055A9.423,9.423,0,0,1,669.036,294.055Z" transform="translate(-649.648 -284.344)" fill="#303c41"/>
        <path id="Path_2166" data-name="Path 2166" d="M651.058,295.157h-1.034c.334-.334.745-.159,1.127-.172C651.12,295.043,651.089,295.1,651.058,295.157Z" transform="translate(-637.937 -285.228)" fill="#646a6b"/>
        <path id="Path_2167" data-name="Path 2167" d="M624.466,307.358a4.177,4.177,0,0,1-.314-6.137c.065-.066.066-.195.1-.294l.419-.04a.59.59,0,0,1,.508.27.385.385,0,0,1-.068.279,2.556,2.556,0,0,0-1.529,2.391c-.187.42.04.826.044,1.24,0,.047-.01.094-.016.141.04,1.082,1,1.575,1.507,2.36Z" transform="translate(-616.682 -289.889)" fill="#192429"/>
        <path id="Path_2168" data-name="Path 2168" d="M631.38,300.376a.465.465,0,0,1-.453-.244l.216-.207c1.144.119,2.3.213,3.018,1.308l.429.641.216.859a.27.27,0,0,1-.416,0,4.224,4.224,0,0,0-1.306-1.712C632.628,300.506,631.837,300.884,631.38,300.376Z" transform="translate(-622.941 -289.134)" fill="#151c21"/>
        <path id="Path_2169" data-name="Path 2169" d="M634.953,300.534a6.172,6.172,0,0,0-3.018-1.307.783.783,0,0,1,.663-.187c.509.335,1.173.22,1.677.6C634.6,299.888,634.936,300.077,634.953,300.534Z" transform="translate(-623.732 -288.435)" fill="#050809"/>
        <path id="Path_2170" data-name="Path 2170" d="M651.864,301.844c.326-.292.234-.831.634-1.079a.2.2,0,0,1,.261-.019.553.553,0,0,1,.088.423,3.916,3.916,0,0,1-.194.538,5.768,5.768,0,0,0-.283,1.189,2.088,2.088,0,0,0,.1.534,5.072,5.072,0,0,0,.225.965,4.033,4.033,0,0,0,2.057,2.349c.184.086.405.175.332.461l-.86,0A5.48,5.48,0,0,1,651.864,301.844Z" transform="translate(-639.347 -289.746)" fill="#1d2529"/>
        <path id="Path_2171" data-name="Path 2171" d="M647.058,312.981l.416,0c.356,1.172.727,2.345-.213,3.436a.3.3,0,0,1,0-.431A5.266,5.266,0,0,0,647.058,312.981Z" transform="translate(-635.608 -299.386)" fill="#1d2529"/>
        <path id="Path_2172" data-name="Path 2172" d="M643.3,327q0,.215,0,.43c-.306.472-.63.916-1.285.871Z" transform="translate(-631.65 -310.395)" fill="#2b393e"/>
        <path id="Path_2173" data-name="Path 2173" d="M653.292,304.2a.418.418,0,0,1-.188-.431c.418-.341.191-.885.405-1.29a.443.443,0,0,1,.207-.43c.136-.151.244-.386.5-.169.141.288,0,.551-.073.821a3.865,3.865,0,0,0,.687,3.516c.957,1.269,1.781,1.351,2.995.295a1.455,1.455,0,0,0,.347-1.089c.031-.46.031-.941.494-1.232a2.706,2.706,0,0,1-2.578,3.868,4.035,4.035,0,0,1-2.581-2.785C653.257,304.951,653.563,304.516,653.292,304.2Z" transform="translate(-640.355 -290.598)" fill="#303d45"/>
        <path id="Path_2174" data-name="Path 2174" d="M656.453,298.092l-.494.192q.008-.211.016-.421c.177-.661.782-.686,1.285-.862,1.217-.031,2.287.212,2.8,1.5-.507.166-.774-.4-1.229-.4A5.055,5.055,0,0,0,656.453,298.092Z" transform="translate(-642.598 -286.835)" fill="#303c41"/>
        <path id="Path_2175" data-name="Path 2175" d="M669.624,301.124c.56-.133.743.464,1.165.6a3.524,3.524,0,0,1,.852,1.928,5.139,5.139,0,0,0-.223,1.574.935.935,0,0,1-.49.984.439.439,0,0,1-.109-.294,5.165,5.165,0,0,0-1.138-4.483A.482.482,0,0,1,669.624,301.124Z" transform="translate(-653.329 -290.06)" fill="#3a474e"/>
        <path id="Path_2176" data-name="Path 2176" d="M656.49,296.978l-1.285.862-.226-.008c.073-.64.58-.742,1.071-.862Z" transform="translate(-641.829 -286.812)" fill="#0f1b1f"/>
        <path id="Path_2177" data-name="Path 2177" d="M628.353,304.377a4.215,4.215,0,0,1,1.914,3.276,2.029,2.029,0,0,1-1.058,2.25c-.984.434-1.693-.172-2.309-.858a9.313,9.313,0,0,1-.617-.859,2.9,2.9,0,0,1-.439-2.618A1.676,1.676,0,0,1,628.353,304.377Z" transform="translate(-618.862 -292.463)" fill="#fcfcfc"/>
        <path id="Path_2178" data-name="Path 2178" d="M627.56,303.38c-1.656-.259-2.384.373-2.4,2.045a8.387,8.387,0,0,0,.336,1.765l-.5-.406h0c-.033-.439-.41-.821-.215-1.3.013-1.617.349-2.12,1.722-2.57a1.429,1.429,0,0,1,1.072.216Q627.566,303.257,627.56,303.38Z" transform="translate(-618.069 -291.466)" fill="#39474f"/>
        <path id="Path_2179" data-name="Path 2179" d="M634.074,302.451a2.028,2.028,0,0,1-1.071-.216q0-.105.007-.21c.637.031,1.284.034,1.705.64Z" transform="translate(-624.571 -290.783)" fill="#2c383e"/>
        <path id="Path_2180" data-name="Path 2180" d="M665.513,390.945c.292.035.476.181.418.494-.091.49-.516.4-.851.457a.229.229,0,0,1-.238-.079C664.758,391.289,665.247,391.2,665.513,390.945Z" transform="translate(-649.567 -360.611)" fill="#dfa363"/>
        <path id="Path_2181" data-name="Path 2181" d="M663.366,385.683q0,.221,0,.442c-.454-.034-1.016.281-1.27-.4C662.5,385.1,662.929,385.306,663.366,385.683Z" transform="translate(-647.419 -356.198)" fill="#e38b39"/>
        <path id="Path_2182" data-name="Path 2182" d="M664.88,379.085l.068.368c.114.142.029.246-.065.349a.6.6,0,0,1-.381.136.643.643,0,0,1-.371-.847Z" transform="translate(-648.985 -351.297)" fill="#e5974a"/>
        <path id="Path_2183" data-name="Path 2183" d="M662.9,382.334l.13-.2a.415.415,0,0,1,.306.59l-.007.453c-.427-.11-.858-.324-1.268.046C661.949,382.556,662.949,382.937,662.9,382.334Z" transform="translate(-647.386 -353.693)" fill="#d7e3df"/>
        <path id="Path_2184" data-name="Path 2184" d="M662.556,393.428l.238.079q0,.175,0,.35l0,.219-.422-.22c-.128-.3-.453-.489-.45-.854C662.261,392.951,662.347,393.282,662.556,393.428Z" transform="translate(-647.28 -362.221)" fill="#c9f0fc"/>
        <path id="Path_2185" data-name="Path 2185" d="M675.641,363.844a.512.512,0,0,1,.452-.3.4.4,0,0,0,.037.143c.211.15.2.378.209.6a2.16,2.16,0,0,1-1.733,1.081l-.634-.031q.006-.3.013-.59l.412-.1C674.821,364.4,675.455,364.466,675.641,363.844Z" transform="translate(-656.744 -339.096)" fill="#6eb3cb"/>
        <path id="Path_2186" data-name="Path 2186" d="M672.591,375.567c-.074.483.152,1.276-.838.808-.006-.175-.025-.351-.014-.524.017-.259-.142-.612.213-.729S672.352,375.449,672.591,375.567Z" transform="translate(-654.974 -348.171)" fill="#e58b36"/>
        <path id="Path_2187" data-name="Path 2187" d="M691.364,359.217h-.429c-.407.32-1.058.274-1.288.859-.473.244-.583-.056-.643-.429.384-1.161,1.37-2.033,1.573-3.287.022-.137.234-.244.358-.365a1.945,1.945,0,0,1-.014.617c-.343.939.237.933.873.887C691.977,358.154,691.081,358.538,691.364,359.217Z" transform="translate(-668.548 -333.166)" fill="#92d2e4"/>
        <path id="Path_2188" data-name="Path 2188" d="M698.5,362.363c-.148-.5-1.005-1.164.311-1.337.055-.007.08-.248.119-.38.033-.553.589-.408.859-.644-.078.589-.564,1.075-.43,1.717C698.687,361.425,698.876,362.274,698.5,362.363Z" transform="translate(-675.68 -336.312)" fill="#8dd0e5"/>
        <path id="Path_2189" data-name="Path 2189" d="M685.079,372.117c.222.131.31.464.644.429-.07.429,1.026.859,0,1.288-.044-.018-.088-.036-.132-.053a2.564,2.564,0,0,0-.934-.594l-.65-.643a.529.529,0,0,0,.52-.41C684.7,371.631,684.891,371.992,685.079,372.117Z" transform="translate(-664.623 -345.635)" fill="#92d2e1"/>
        <path id="Path_2190" data-name="Path 2190" d="M684.228,364c-.241-.14-.208-.376-.209-.6l.431-.222q0,.2,0,.391A.45.45,0,0,1,684.228,364Z" transform="translate(-664.633 -338.807)" fill="#6cb1e0"/>
        <path id="Path_2194" data-name="Path 2194" d="M689.2,381.367l-.227-.857a.454.454,0,0,1,.648,0h0C689.584,380.843,689.772,381.291,689.2,381.367Z" transform="translate(-668.527 -352.309)" fill="#98d0e2"/>
        <path id="Path_2195" data-name="Path 2195" d="M680.539,379.66c.284.467.987.652.914,1.358a.441.441,0,0,1-.24.134,3.807,3.807,0,0,0-1.23-.027.326.326,0,0,1-.245-.106c0-.07-.005-.141-.008-.211-.133-.176-.034-.338.029-.5a1.653,1.653,0,0,1,.3-.439A.6.6,0,0,1,680.539,379.66Z" transform="translate(-661.214 -351.747)" fill="#d9e7e9"/>
        <path id="Path_2196" data-name="Path 2196" d="M681.038,388.521a.906.906,0,0,0-1.006-.184l-.022-.481a.925.925,0,0,1,.417-.239c.317-.035.642-.183.944.056a.487.487,0,0,1-.073.607Z" transform="translate(-661.486 -357.938)" fill="#ccf0f8"/>
        <path id="Path_2197" data-name="Path 2197" d="M671.672,394.892c-.077.4-.342.485-.7.412-.082-.393-.136-.843.331-.97C671.712,394.223,671.69,394.607,671.672,394.892Z" transform="translate(-654.347 -363.257)" fill="#e2b17a"/>
        <path id="Path_2198" data-name="Path 2198" d="M678.8,379.011l-.227.4a.438.438,0,0,1-.635.019.973.973,0,0,1,.249-.84C678.632,378.388,678.968,378.336,678.8,379.011Z" transform="translate(-659.848 -350.804)" fill="#f17a09"/>
        <path id="Path_2199" data-name="Path 2199" d="M677.263,395.416l-.372,0c-.035-.1-.069-.2-.107-.292-.07-.177-.354-.3-.179-.53a.44.44,0,0,1,.355-.137c.3.047.354.3.351.551A3.686,3.686,0,0,1,677.263,395.416Z" transform="translate(-658.768 -363.364)" fill="#de934f"/>
        <path id="Path_2200" data-name="Path 2200" d="M666.918,381.677l-.305-.59.316-.287C667.538,381.1,667.529,381.392,666.918,381.677Z" transform="translate(-650.964 -352.644)" fill="#ea8b37"/>
        <path id="Path_2201" data-name="Path 2201" d="M679.78,378c-.016-.413-.29-.453-.613-.423l.248-.408c.393-.024.567.251.734.536Z" transform="translate(-660.823 -349.791)" fill="#e29145"/>
        <path id="Path_2202" data-name="Path 2202" d="M680.439,386.638l-.431,0q0-.323,0-.647h.215C680.514,386.134,680.647,386.329,680.439,386.638Z" transform="translate(-661.483 -356.723)" fill="#d6e3e4"/>
        <path id="Path_2203" data-name="Path 2203" d="M678.005,382.917l.635-.019-.212.455A.39.39,0,0,1,678.005,382.917Z" transform="translate(-659.911 -354.292)" fill="#d6e3e4"/>
        <path id="Path_2204" data-name="Path 2204" d="M688.1,378.259l-.648,0-.417-.649C687.717,377.286,687.895,377.793,688.1,378.259Z" transform="translate(-667 -350.06)" fill="#93d3e9"/>
        <path id="Path_2205" data-name="Path 2205" d="M685.874,387.044q0-.316,0-.632c-.122-.265.072-.352.252-.446.058,0,.115.005.173.006C686.21,386.35,686.563,386.9,685.874,387.044Z" transform="translate(-666.061 -356.7)" fill="#dae8e8"/>
        <path id="Path_2208" data-name="Path 2208" d="M624.368,314.973a3.735,3.735,0,0,1,.215,1.3C624.345,315.865,623.986,315.481,624.368,314.973Z" transform="translate(-617.659 -300.951)" fill="#314047"/>
        <path id="Path_2209" data-name="Path 2209" d="M653.513,304.99c-.139.429.334,1.05-.405,1.29A2.964,2.964,0,0,1,653.513,304.99Z" transform="translate(-640.359 -293.111)" fill="#303c41"/>
        <path id="Path_2210" data-name="Path 2210" d="M653.973,313c.363.3.166.713.216,1.075C653.844,313.775,654.021,313.366,653.973,313Z" transform="translate(-641.036 -299.404)" fill="#303c41"/>
        <path id="Path_2211" data-name="Path 2211" d="M658.928,299.969a4.472,4.472,0,0,1,1.3,5.086c-1.1,1.112-2.031,1.1-3.095-.036a4.194,4.194,0,0,1-.65-4.857A1.953,1.953,0,0,1,658.928,299.969Z" transform="translate(-642.632 -288.905)" fill="#fcfcfc"/>
        <path id="Path_2212" data-name="Path 2212" d="M631.854,317.289c-.034.456-.171.891-.7.914-.6.026-.774-.47-.786-.948-.012-.453.209-.906.711-.924C631.657,316.309,631.828,316.772,631.854,317.289Z" transform="translate(-622.501 -302.016)" fill="#1c1d1d"/>
        <path id="Path_2213" data-name="Path 2213" d="M682.335,385.105l-.252.446a1.241,1.241,0,0,1-.858.2l-.217-.644A1.049,1.049,0,0,1,682.335,385.105Z" transform="translate(-662.268 -355.84)" fill="#e29041"/>
        <path id="Path_2214" data-name="Path 2214" d="M662.427,313.949c-.089.481-.239.968-.823.921-.494-.04-.677-.465-.67-.935s.178-.885.69-.915C662.225,312.984,662.344,313.475,662.427,313.949Z" transform="translate(-646.505 -299.415)" fill="#10100f"/>
      </g>
    </g>
  </g>
</svg>
